<svg xmlns="http://www.w3.org/2000/svg" xmlns:xlink="http://www.w3.org/1999/xlink" viewBox="0 0 835.5 104.63"><defs><clipPath id="a"><rect x="63.38" y="7.13" width="33.75" height="33.75" fill="none"/></clipPath><linearGradient id="b" x1="-4.7" y1="106.47" x2="-4.65" y2="106.49" gradientTransform="matrix(22.83, 0, 0, -24.36, 412.92, 2616.75)" gradientUnits="userSpaceOnUse"><stop offset="0" stop-color="#f69923"/><stop offset="0.31" stop-color="#f79a23"/><stop offset="0.84" stop-color="#e97826"/></linearGradient><linearGradient id="c" x1="-8.32" y1="105.96" x2="-8.31" y2="106.13" gradientTransform="matrix(12.88, 0, 0, -39.21, 412.63, 4184.45)" gradientUnits="userSpaceOnUse"><stop offset="0.32" stop-color="#9e2064"/><stop offset="0.63" stop-color="#c92037"/><stop offset="0.75" stop-color="#cd2335"/><stop offset="1" stop-color="#e97826"/></linearGradient><linearGradient id="d" x1="-8.12" y1="108.4" x2="-8.11" y2="108.54" gradientTransform="matrix(16.57, 0, 0, -35.84, 441.54, 3915.53)" gradientUnits="userSpaceOnUse"><stop offset="0" stop-color="#282662"/><stop offset="0.1" stop-color="#662e8d"/><stop offset="0.79" stop-color="#9f2064"/><stop offset="0.95" stop-color="#cd2032"/></linearGradient><linearGradient id="e" x1="-4.14" y1="105.75" x2="-4.12" y2="105.85" gradientTransform="matrix(26.06, 0, 0, -66.84, 413.58, 7098.69)" xlink:href="#c"/><linearGradient id="f" x1="-3.7" y1="106.88" x2="-3.68" y2="106.93" gradientTransform="matrix(31.89, 0, 0, -61.32, 424.36, 6584.25)" xlink:href="#d"/><linearGradient id="g" x1="-4.43" y1="105.37" x2="-4.42" y2="105.48" gradientTransform="matrix(27.18, 0, 0, -78.51, 426.8, 8303.83)" xlink:href="#c"/><linearGradient id="h" x1="-6.23" y1="105.42" x2="-6.21" y2="105.62" gradientTransform="matrix(18.71, 0, 0, -47.67, 422.48, 5058.89)" xlink:href="#c"/><linearGradient id="i" x1="-7.72" y1="106.77" x2="-7.66" y2="106.79" gradientTransform="matrix(26.81, 0, 0, -23.38, 517.27, 2519.64)" xlink:href="#b"/><linearGradient id="j" x1="-6.21" y1="105.78" x2="-6.14" y2="105.95" gradientTransform="matrix(29.59, 0, 0, -41.58, 491.42, 4428.88)" xlink:href="#c"/><linearGradient id="k" x1="-4.12" y1="110.52" x2="-4.06" y2="110.61" gradientTransform="matrix(35.27, 0, 0, -26.32, 452.18, 2938.21)" xlink:href="#d"/><linearGradient id="l" x1="-3.52" y1="105.48" x2="-3.49" y2="105.57" gradientTransform="matrix(41.72, 0, 0, -74.51, 454.48, 7889.25)" xlink:href="#c"/><linearGradient id="m" x1="-3.9" y1="106.37" x2="-3.89" y2="106.43" gradientTransform="matrix(31.13, 0, 0, -71.5, 428.22, 7635.79)" xlink:href="#d"/><linearGradient id="n" x1="-2.42" y1="105.95" x2="-2.36" y2="106.05" gradientTransform="matrix(63.61, 0, 0, -62.18, 460.63, 6618.27)" xlink:href="#c"/><linearGradient id="o" x1="-4.24" y1="106.64" x2="-4.15" y2="106.74" gradientTransform="matrix(45.01, 0, 0, -32.48, 497.29, 3490.79)" xlink:href="#c"/><clipPath id="p"><rect x="574.88" y="5.25" width="23.07" height="37.5" fill="none"/></clipPath><linearGradient id="q" x1="-7407.96" y1="-3533.52" x2="-7395.73" y2="-3547.81" gradientTransform="matrix(0.07, -0.15, -0.15, -0.07, 727.74, -1334.99)" xlink:href="#b"/><linearGradient id="r" x1="-7498.41" y1="-3531.91" x2="-7411.21" y2="-3531.91" gradientTransform="matrix(0.07, -0.15, -0.15, -0.07, 727.74, -1334.99)" xlink:href="#c"/><linearGradient id="s" x1="-7487.88" y1="-3540.67" x2="-7435.92" y2="-3540.67" gradientTransform="matrix(0.07, -0.15, -0.15, -0.07, 727.74, -1334.99)" xlink:href="#d"/><linearGradient id="t" x1="-7493.51" y1="-3531.1" x2="-7406.31" y2="-3531.1" gradientTransform="matrix(0.07, -0.15, -0.15, -0.07, 727.74, -1334.99)" xlink:href="#c"/><linearGradient id="u" x1="-7487.15" y1="-3532.3" x2="-7441.33" y2="-3532.3" gradientTransform="matrix(0.07, -0.15, -0.15, -0.07, 727.74, -1334.99)" xlink:href="#d"/><linearGradient id="v" x1="-7493.51" y1="-3540.13" x2="-7406.31" y2="-3540.13" gradientTransform="matrix(0.07, -0.15, -0.15, -0.07, 727.74, -1334.99)" xlink:href="#c"/><linearGradient id="w" x1="-7498.92" y1="-3539.69" x2="-7411.72" y2="-3539.69" gradientTransform="matrix(0.07, -0.15, -0.15, -0.07, 727.74, -1334.99)" xlink:href="#c"/><linearGradient id="x" x1="-7493.51" y1="-3542.83" x2="-7406.31" y2="-3542.83" gradientTransform="matrix(0.07, -0.15, -0.15, -0.07, 727.74, -1334.99)" xlink:href="#c"/><linearGradient id="y" x1="-7493.51" y1="-3542.51" x2="-7406.31" y2="-3542.51" gradientTransform="matrix(0.07, -0.15, -0.15, -0.07, 727.74, -1334.99)" xlink:href="#c"/><linearGradient id="z" x1="-7434.9" y1="-3542.46" x2="-7434.9" y2="-3542.46" gradientTransform="matrix(0.07, -0.15, -0.15, -0.07, 727.74, -1334.99)" xlink:href="#c"/><clipPath id="aa"><rect x="112.5" y="56.25" width="48" height="48" rx="11.25" fill="none"/></clipPath><linearGradient id="ab" x1="-574" y1="-778.91" x2="-574" y2="-1015.43" gradientTransform="matrix(0.19, 0, 0, -0.19, 244.13, -88.81)" gradientUnits="userSpaceOnUse"><stop offset="0" stop-color="#97d9f6"/><stop offset="0.92" stop-color="#0f80cc"/><stop offset="1" stop-color="#0f80cc"/></linearGradient><mask id="ac" x="177.35" y="61.5" width="30.79" height="38.57" maskUnits="userSpaceOnUse"><path d="M202.88,69.88a.86.86,0,0,0-.58-.68.85.85,0,0,0-.87.21L197,73.86l-3.51-6.63a.83.83,0,0,0-1.49,0l-1.9,3.63L185.28,62a.86.86,0,0,0-1.6.28l-4.62,29.53,12.38,6.92a2.58,2.58,0,0,0,2.5,0l12.49-6.92Z" fill="#fff"/></mask><linearGradient id="ad" x1="-665.54" y1="-861.07" x2="-483.91" y2="-957.46" gradientTransform="matrix(0.19, 0, 0, -0.19, 300.38, -88.81)" gradientUnits="userSpaceOnUse"><stop offset="0" stop-color="#fff" stop-opacity="0.1"/><stop offset="1" stop-color="#fff" stop-opacity="0"/></linearGradient><linearGradient id="af" x1="-655.38" y1="-821.17" x2="-556.27" y2="-919.3" gradientTransform="matrix(0.19, 0, 0, -0.19, 469.13, -88.81)" gradientUnits="userSpaceOnUse"><stop offset="0" stop-color="#387eb8"/><stop offset="1" stop-color="#366994"/></linearGradient><linearGradient id="ag" x1="-594.51" y1="-884.17" x2="-488.07" y2="-984.79" gradientTransform="matrix(0.19, 0, 0, -0.19, 469.13, -88.81)" gradientUnits="userSpaceOnUse"><stop offset="0" stop-color="#ffe052"/><stop offset="1" stop-color="#ffc331"/></linearGradient><linearGradient id="ah" x1="-671.71" y1="-916.24" x2="-578.86" y2="-916.24" gradientTransform="matrix(0.19, 0, 0, -0.19, 694.13, -88.81)" gradientUnits="userSpaceOnUse"><stop offset="0.26" stop-color="#f97a12"/><stop offset="0.46" stop-color="#b07b58"/><stop offset="0.72" stop-color="#577bae"/><stop offset="0.91" stop-color="#1e7ce5"/><stop offset="1" stop-color="#087cfa"/></linearGradient><linearGradient id="ai" x1="-600.41" y1="-872.81" x2="-447.11" y2="-957.64" gradientTransform="matrix(0.19, 0, 0, -0.19, 694.13, -88.81)" gradientUnits="userSpaceOnUse"><stop offset="0" stop-color="#f97a12"/><stop offset="0.07" stop-color="#cb7a3e"/><stop offset="0.15" stop-color="#9e7b6a"/><stop offset="0.24" stop-color="#757b91"/><stop offset="0.33" stop-color="#537bb1"/><stop offset="0.43" stop-color="#387ccc"/><stop offset="0.54" stop-color="#237ce0"/><stop offset="0.66" stop-color="#147cef"/><stop offset="0.79" stop-color="#0b7cf7"/><stop offset="1" stop-color="#087cfa"/></linearGradient><linearGradient id="aj" x1="-493.32" y1="-924.27" x2="-536" y2="-796.75" gradientTransform="matrix(0.19, 0, 0, -0.19, 694.13, -88.81)" gradientUnits="userSpaceOnUse"><stop offset="0" stop-color="#fe315d"/><stop offset="0.08" stop-color="#cb417e"/><stop offset="0.16" stop-color="#9e4e9b"/><stop offset="0.25" stop-color="#755bb4"/><stop offset="0.34" stop-color="#5365ca"/><stop offset="0.44" stop-color="#386ddb"/><stop offset="0.54" stop-color="#2374e9"/><stop offset="0.66" stop-color="#1478f3"/><stop offset="0.79" stop-color="#0b7bf8"/><stop offset="1" stop-color="#087cfa"/></linearGradient><linearGradient id="ak" x1="-643.45" y1="-848.78" x2="-515.44" y2="-1060.52" gradientTransform="matrix(0.19, 0, 0, -0.19, 694.13, -88.81)" gradientUnits="userSpaceOnUse"><stop offset="0" stop-color="#fe315d"/><stop offset="0.04" stop-color="#f63462"/><stop offset="0.1" stop-color="#df3a71"/><stop offset="0.17" stop-color="#c24383"/><stop offset="0.29" stop-color="#ad4a91"/><stop offset="0.55" stop-color="#755bb4"/><stop offset="0.92" stop-color="#1d76ed"/><stop offset="1" stop-color="#087cfa"/></linearGradient><mask id="al" x="680.25" y="61.5" width="37.5" height="37.5" maskUnits="userSpaceOnUse"><path d="M687.12,93.22l-6.24-4.69a1.47,1.47,0,0,1-.47-.55,1.71,1.71,0,0,1-.16-.7V73.22a1.71,1.71,0,0,1,.16-.7,1.47,1.47,0,0,1,.47-.55l6.24-4.69a1.49,1.49,0,0,0-.36.57,1.31,1.31,0,0,0-.06.68V92a1.31,1.31,0,0,0,.06.68A1.49,1.49,0,0,0,687.12,93.22Z" fill="#fff"/><path d="M717.05,68a1.53,1.53,0,0,0-.86-.26,1.71,1.71,0,0,0-.59.11,1.63,1.63,0,0,0-.49.33l-.11.11-12.47,12-6.9,6.62L689.25,93l-.11.11a1.63,1.63,0,0,1-.49.33,1.51,1.51,0,0,1-.59.11,1.6,1.6,0,0,1-.94-.31l-6.24-4.69a1.5,1.5,0,0,0,1.1.3,1.55,1.55,0,0,0,1-.53l6.94-8.06,5.69-6.61,10-11.58a1.54,1.54,0,0,1,.53-.41,1.58,1.58,0,0,1,1.52.12Z" fill="#fff"/><path d="M717.05,92.49l-9.37,6.25a1.59,1.59,0,0,1-2-.28l-10-11.59-5.69-6.63-6.94-8a1.6,1.6,0,0,0-1-.54,1.55,1.55,0,0,0-1.1.31l6.24-4.69a1.6,1.6,0,0,1,.94-.31,1.51,1.51,0,0,1,.59.11,1.46,1.46,0,0,1,.49.33l.11.11,6.38,6.11,6.9,6.62L715,92.2l.11.11a1.63,1.63,0,0,0,.49.33,1.71,1.71,0,0,0,.59.11A1.53,1.53,0,0,0,717.05,92.49Z" fill="#fff"/><path d="M717.75,69.31V91.19a1.59,1.59,0,0,1-.18.74,1.64,1.64,0,0,1-.52.56l-9.37,6.25a1.61,1.61,0,0,0,.51-.56,1.47,1.47,0,0,0,.18-.74V63.06a1.6,1.6,0,0,0-.19-.74,1.65,1.65,0,0,0-.52-.56L717.05,68a1.52,1.52,0,0,1,.51.56A1.48,1.48,0,0,1,717.75,69.31Z" fill="#fff"/></mask><linearGradient id="am" x1="-500.46" y1="-812.64" x2="-648.97" y2="-962.11" gradientTransform="matrix(0.19, 0, 0, -0.19, 806.63, -88.81)" gradientUnits="userSpaceOnUse"><stop offset="0" stop-color="#7252aa"/><stop offset="1" stop-color="#7252aa"/></linearGradient><linearGradient id="an" x1="-646.99" y1="-830.74" x2="-507.4" y2="-986.99" gradientTransform="matrix(0.19, 0, 0, -0.19, 806.63, -88.81)" gradientUnits="userSpaceOnUse"><stop offset="0" stop-color="#ae7fe2"/><stop offset="1" stop-color="#9a70d4"/></linearGradient><linearGradient id="ao" x1="-500.92" y1="-799.02" x2="-500.92" y2="-1000.12" gradientTransform="matrix(0.19, 0, 0, -0.19, 806.63, -88.81)" gradientUnits="userSpaceOnUse"><stop offset="0" stop-color="#d59dff"/><stop offset="1" stop-color="#c18ef1"/></linearGradient><clipPath id="ap"><rect x="731.25" y="56.25" width="48" height="48" fill="none"/></clipPath><clipPath id="aq"><rect x="738.75" y="63.75" width="32.81" height="32.81" fill="none"/></clipPath><linearGradient id="ar" x1="-565.73" y1="-815.72" x2="-581.99" y2="-990.72" gradientTransform="matrix(0.19, 0, 0, -0.19, 862.88, -88.81)" gradientUnits="userSpaceOnUse"><stop offset="0" stop-color="#2cd788"/><stop offset="0.38" stop-color="#24d68e"/><stop offset="1" stop-color="#1ed593"/></linearGradient><linearGradient id="as" x1="-519.6" y1="-824.02" x2="-624.91" y2="-958.44" gradientTransform="matrix(0.19, 0, 0, -0.19, 862.88, -88.81)" gradientUnits="userSpaceOnUse"><stop offset="0" stop-color="#ade46c"/><stop offset="0.89" stop-color="#59dc7e"/><stop offset="1" stop-color="#1fd593"/></linearGradient><linearGradient id="at" x1="-608.56" y1="-951.26" x2="-492.81" y2="-933.28" gradientTransform="matrix(0.19, 0, 0, -0.19, 862.88, -88.81)" gradientUnits="userSpaceOnUse"><stop offset="0" stop-color="#bae768"/><stop offset="0.99" stop-color="#fbf849"/><stop offset="1" stop-color="#faf748"/></linearGradient></defs><title>dulanjaya_skill_and_tool_icon_set</title><rect width="48" height="48" rx="11.25" fill="#242938"/><path d="M9.22,18.8h5.32a4.1,4.1,0,0,1,3.4,1.35,4.53,4.53,0,0,1,.7,3.63A6.76,6.76,0,0,1,18,25.85a6,6,0,0,1-1.27,1.83A4.36,4.36,0,0,1,14.62,29a9.49,9.49,0,0,1-2.34.28H9.89l-.75,3.78H6.38L9.22,18.8Zm2.32,2.26-1.19,6a1,1,0,0,0,.24,0h.28a10.44,10.44,0,0,0,3.18-.37q1.26-.42,1.71-2.91c.23-1.39,0-2.19-.72-2.4a9,9,0,0,0-2.64-.3,3.62,3.62,0,0,1-.46,0h-.42l0,0" fill="#fff"/><path d="M21.78,15h2.75l-.78,3.8h2.47a4.9,4.9,0,0,1,3,.83c.67.53.87,1.54.59,3L28.5,29.27H25.72L27,23a1.81,1.81,0,0,0-.12-1.41,1.68,1.68,0,0,0-1.37-.42l-2.2,0-1.63,8.17H18.92Z" fill="#fff"/><path d="M32.78,18.8h5.33a4.09,4.09,0,0,1,3.39,1.35,4.49,4.49,0,0,1,.7,3.63,6.76,6.76,0,0,1-.62,2.07,5.85,5.85,0,0,1-1.27,1.83A4.38,4.38,0,0,1,38.19,29a9.63,9.63,0,0,1-2.35.28H33.46l-.76,3.78H29.94L32.78,18.8Zm2.32,2.26-1.19,6a1,1,0,0,0,.24,0h.28a10.44,10.44,0,0,0,3.18-.37q1.28-.42,1.71-2.91.36-2.09-.72-2.4a9,9,0,0,0-2.64-.3,3.62,3.62,0,0,1-.46,0h-.42l0,0" fill="#fff"/><rect x="56.25" width="48" height="48" rx="11.25" fill="#242938"/><g clip-path="url(#a)"><path d="M94.46,33.41a10.63,10.63,0,0,0-4.45.64c-.34.14-.9.14-.94.57.18.19.2.48.37.73a5,5,0,0,0,1.19,1.39l1.47,1c.89.55,1.9.87,2.78,1.42.5.32,1,.73,1.51,1.07.26.18.41.48.74.59v-.06c-.17-.21-.21-.51-.37-.73l-.69-.67a10.86,10.86,0,0,0-2.39-2.3c-.73-.5-2.34-1.19-2.64-2l0,0a9.54,9.54,0,0,0,1.58-.37c.78-.2,1.49-.16,2.3-.36L96,34v-.2c-.42-.42-.71-1-1.15-1.35A31,31,0,0,0,91,29.62c-.71-.45-1.63-.75-2.38-1.14-.28-.13-.74-.2-.9-.43a9.23,9.23,0,0,1-.94-1.76l-1.88-4a27.79,27.79,0,0,0-1.17-2.6,23.21,23.21,0,0,0-8.89-8.53A11.06,11.06,0,0,0,72,10.26l-1.72-.1a8.34,8.34,0,0,1-1.06-.79c-1.31-.82-4.68-2.6-5.64-.26-.62,1.48.91,2.94,1.44,3.7a10.55,10.55,0,0,1,1.17,1.71c.15.38.2.8.36,1.21a28,28,0,0,0,1.2,3.05,12.69,12.69,0,0,0,.85,1.42c.18.25.5.36.57.77a6.84,6.84,0,0,0-.53,1.71,10,10,0,0,0,.67,7.67c.37.57,1.23,1.83,2.41,1.35,1-.41.8-1.71,1.1-2.85.07-.28,0-.46.16-.64v.05l.94,1.89a13,13,0,0,0,3,3.06c.55.41,1,1.12,1.67,1.37v-.07h0a2.92,2.92,0,0,0-.53-.46,11.69,11.69,0,0,1-1.2-1.36,30.15,30.15,0,0,1-2.57-4.16c-.36-.7-.69-1.48-1-2.19-.14-.27-.14-.68-.37-.82a8.32,8.32,0,0,0-1.1,1.55,12.67,12.67,0,0,0-.65,3.45c-.09,0,0,0-.09.05-.73-.18-1-.94-1.26-1.57a9.85,9.85,0,0,1-.21-6.09c.16-.48.85-2,.58-2.45s-.6-.68-.85-1A9.61,9.61,0,0,1,68.43,18c-.55-1.28-.82-2.69-1.42-4a13,13,0,0,0-1.15-1.76,10.53,10.53,0,0,1-1.26-1.78c-.12-.25-.28-.66-.09-.93a.36.36,0,0,1,.32-.3c.3-.25,1.15.07,1.44.21a11.84,11.84,0,0,1,2.28,1.14c.32.22.66.66,1.08.77h.48c.73.16,1.56.05,2.25.26a15.23,15.23,0,0,1,3.3,1.57A20.3,20.3,0,0,1,82.82,21c.28.53.39,1,.65,1.56C84,23.66,84.55,24.8,85,25.9A14.89,14.89,0,0,0,86.66,29c.34.48,1.72.73,2.34,1a14.89,14.89,0,0,1,1.58.64c.78.48,1.56,1,2.3,1.55.36.27,1.51.84,1.58,1.3ZM71.05,13.59a3.79,3.79,0,0,0-.94.12v0h0a7.29,7.29,0,0,0,.73.93l.53,1.1,0,0A1.3,1.3,0,0,0,72,14.6a3.87,3.87,0,0,1-.27-.48c-.14-.23-.44-.35-.63-.53Z" fill="#fff" fill-rule="evenodd"/></g><rect x="112.5" width="48" height="48" rx="11.25" fill="#242938"/><path d="M136.5,27.55a3.5,3.5,0,1,0-3.5-3.49A3.5,3.5,0,0,0,136.5,27.55Z" fill="#00d8ff"/><path d="M136.5,16.94a39.3,39.3,0,0,1,12.35,1.81c4,1.36,6.4,3.43,6.4,5.31s-2.58,4.14-6.84,5.55a39.27,39.27,0,0,1-11.91,1.63,39.29,39.29,0,0,1-12.15-1.64c-4.12-1.4-6.6-3.63-6.6-5.54s2.33-3.91,6.23-5.28a39.7,39.7,0,0,1,12.52-1.84Z" fill="none" stroke="#00d8ff"/><path d="M130.31,20.52a39.54,39.54,0,0,1,7.73-9.8c3.17-2.75,6.17-3.83,7.8-2.89s2.3,4.31,1.4,8.7a39.52,39.52,0,0,1-4.55,11.13,39.1,39.1,0,0,1-7.49,9.71c-3.27,2.87-6.44,3.9-8.1,2.94s-2.22-4-1.45-8a39.48,39.48,0,0,1,4.66-11.76Z" fill="none" stroke="#00d8ff"/><path d="M130.31,27.67a39.35,39.35,0,0,1-4.62-11.59c-.8-4.12-.23-7.26,1.39-8.2S132,8,135.31,11a39.64,39.64,0,0,1,7.38,9.5,39.3,39.3,0,0,1,4.67,11.34c.84,4.26.16,7.53-1.5,8.48s-4.55,0-7.68-2.75A39.59,39.59,0,0,1,130.31,27.67Z" fill="none" stroke="#00d8ff"/><rect x="168.75" width="48" height="48" rx="11.25" fill="#000020"/><path d="M179.64,22.72a.28.28,0,0,1,.25-.13.33.33,0,0,1,.28.13c.64.89,1.71,2.67,2.5,4,.52.86.91,1.51,1,1.6.3.31.72.11,1-.24a1.44,1.44,0,0,0,.31-.86c0-.18-3.47-6.61-3.81-7.15s-.45-.64-1-.64h-.43c-.57,0-.66.13-1,.64s-3.81,7-3.81,7.15a1.49,1.49,0,0,0,.3.86c.25.35.66.55,1,.24.08-.09.48-.74,1-1.6C177.93,25.39,179,23.61,179.64,22.72Z" fill="#fff"/><path d="M202.6,22.21a2.73,2.73,0,0,1,2.56,2.88A2.74,2.74,0,0,1,202.6,28a2,2,0,0,1-1.74-.89h0V29.7h-1.59V22.32h1.59v.78A2,2,0,0,1,202.6,22.21Zm6,0a2.89,2.89,0,1,1-2.86,2.89A2.82,2.82,0,0,1,208.61,22.21ZM192.16,20v1.61H189V23h2.81v1.6H189v1.67h3.16v1.61h-4.82V20Zm2.57,2.36.91,1.31.92-1.31h1.89L196.58,25l2,2.87h-1.91l-1-1.5-1,1.5H192.7l2-2.86-1.87-2.69Zm7.51,1.4a1.37,1.37,0,1,0,1.38,1.37A1.37,1.37,0,0,0,202.24,23.72Zm6.37,0a1.37,1.37,0,1,0,1.31,1.37A1.31,1.31,0,0,0,208.61,23.73Z" fill="#fff"/><rect x="225" width="48" height="48" rx="11.25" fill="#242938"/><path d="M244.06,34.24s-1.44.88,1,1.13a20.73,20.73,0,0,0,7.76-.31,12.07,12.07,0,0,0,2.07,1C247.56,39.19,238.3,35.87,244.06,34.24Zm-.94-4.07s-1.57,1.19.87,1.44a29.61,29.61,0,0,0,10-.5,3.83,3.83,0,0,0,1.51.94c-8.83,2.63-18.73.25-12.4-1.88Zm17.28,7.14s1.06.88-1.19,1.57c-4.2,1.25-17.6,1.62-21.35,0-1.32-.57,1.19-1.38,2-1.51a6.22,6.22,0,0,1,1.25-.19c-1.44-1-9.58,2.07-4.13,3,15,2.45,27.3-1.06,23.42-2.81Zm-15.65-11.4s-6.83,1.63-2.45,2.19a54.55,54.55,0,0,0,9-.06c2.82-.25,5.64-.75,5.64-.75a15.18,15.18,0,0,0-1.69.88c-7,1.81-20.29,1-16.47-.88a13.09,13.09,0,0,1,5.95-1.38ZM257,32.74c7-3.63,3.76-7.14,1.51-6.7a3.55,3.55,0,0,0-.82.25,1.06,1.06,0,0,1,.63-.5c4.44-1.57,8,4.69-1.44,7.14a1,1,0,0,0,.12-.19Zm-11.52,9.89c6.77.44,17.1-.25,17.35-3.44,0,0-.5,1.25-5.57,2.19a56.5,56.5,0,0,1-17.1.25s.88.75,5.32,1Z" fill="#fff"/><path d="M252.69,5.25s3.88,3.94-3.69,9.89c-6.08,4.82-1.38,7.58,0,10.71-3.57-3.19-6.14-6-4.39-8.64C247.19,13.33,254.26,11.45,252.69,5.25Zm-2,18c1.81,2.07-.5,4-.5,4s4.63-2.38,2.5-5.33c-1.94-2.82-3.44-4.19,4.7-8.89,0,0-12.84,3.19-6.7,10.27Z" fill="#f58219"/><rect x="281.25" width="48" height="48" rx="11.25" fill="#242938"/><path d="M305.5,22.64a.84.84,0,0,1,0,.12v.12h0v.05h0V23h0V23h0v0h0v.15h0v.06h0v.1l.4.2a4.66,4.66,0,0,1,0-.66v0h0v0h0V23h0v0h0v.06h0v0h0v.07h0v.07h0v.06h0v.05h0v.08h0v.06h0v.09l.25-.23.07-.06,0,0,.06-.06h0l.06-.06h0l.06-.07h0l.06-.06h0a1,1,0,0,0-.2-.29l0,0,0,0h0l0,0h0l0,0h-.24A.28.28,0,0,0,305.5,22.64Z" fill="url(#b)"/><path d="M306.56,27.49l-.06-.2h0l-.05-.18h0l0-.08h0l0-.16h0l0-.15h0l0-.16v-.08l0-.15h0l0-.16c0-.08,0-.15-.05-.23l0-.15,0-.07,0-.1h0l0-.25h0v-.05h0l0-.11h0v0h0v0h0l0,0,0,0h0c0,.05,0,.11,0,.16l0,.18v0c0,.1,0,.2.05.3l0,.1c0,.13.05.26.08.39l.09.39c0,.08,0,.16.07.25l0,.12c0,.13.07.26.1.39a.29.29,0,0,1,0,.09l.05.15a.83.83,0,0,0,0,.15l.06,0,0,0h0C306.63,27.74,306.59,27.62,306.56,27.49Z" fill="none"/><path d="M305.9,24.77c0-.13,0-.27-.06-.39l0-.32V24h0c0-.13,0-.25,0-.38l-.4-.19v0h0v0h0v.68c0,.12,0,.25,0,.38s0,.16,0,.25v.1h0l.53.27,0-.13h0Z" fill="url(#c)"/><path d="M306.67,27.88v0h0l.05.18,0,.08,0,.08h0v0h0l.09.28h0a.41.41,0,0,1,.27.06h0a.49.49,0,0,0-.29-.16.94.94,0,0,0,.51-.83s0-.06,0-.09a.4.4,0,0,1-.2.31h0a1,1,0,0,0,.17-.67,1.11,1.11,0,0,0,0-.17.86.86,0,0,1-.5.69Z" fill="url(#d)"/><path d="M306.48,27.48l0-.13h0l-.06-.26h0c0-.12-.07-.25-.1-.37l-.09-.39-.09-.39,0-.13h0l-.06-.27h0s0-.09,0-.14,0-.16-.05-.24h0l-.53-.27h0c0,.12,0,.24,0,.37s0,.25,0,.37,0,.22.05.32l0,.07h0c0,.13.05.26.08.38s.06.26.1.38a1.42,1.42,0,0,0,.07.22l0,.06h0l0,.12h0c.05.14.11.27.17.41l.54.27-.09-.3v-.06h0Z" fill="url(#e)"/><path d="M306.05,27.61c.07.14.14.28.22.41l0,.07h0a.48.48,0,0,0-.18,0h-.23a1.53,1.53,0,0,1,.66.39.64.64,0,0,1-.31.16.88.88,0,0,0,.24,0h.1a.69.69,0,0,0-.18.33l0,.05v0a1,1,0,0,1,.34-.36c.13.41.27.85.43,1.3l.07.22a1.8,1.8,0,0,0,.08.21.16.16,0,0,0,0-.15l-.05-.14h0l-.06-.17h0l-.09-.26h0l-.07-.22h0l-.08-.25h0l-.07-.24h0l-.07-.23h0l-.06-.17h0l0-.14h0v-.06l0,0h0l-.05-.16h0l0-.16h0l0-.07h0l-.54-.28v0Z" fill="url(#f)"/><path d="M306,25.16v.05h0a.43.43,0,0,1,0,.11l.06.3h0l0,.1h0l0,.15v.07c0,.08,0,.15.05.23l0,.16h0l0,.15v.08l0,.16h0l0,.15.06.24a1.21,1.21,0,0,1,.05.18l.06.2h0l0,.15h0l0,.15,0,.08h0l.16-.15h0a1.63,1.63,0,0,0,.4-.88,2.72,2.72,0,0,0,0-.49,2.37,2.37,0,0,0-.08-.42c0-.12-.07-.26-.12-.4a.66.66,0,0,1-.12.17l0,0h0l0,0h0a1,1,0,0,0,.12-.71,1.2,1.2,0,0,1-.16.28l0,0h0a.89.89,0,0,0,.1-.23,0,0,0,0,0,0,0v0s0-.05,0-.07v0h0v-.14h0V24.8l0-.17v0h0v0h0l0-.05h0l0-.05v-.07h0v0h0a1.07,1.07,0,0,1-.19.26h0v0h0l-.51.47S306,25.16,306,25.16Z" fill="url(#g)"/><path d="M305.82,23.58V24h0s0,.09,0,.14v.1l0,.1,0,.16,0,.23v.06l0,.18,0,.2h0l.52-.47a.79.79,0,0,0,.12-.46v-.13c0-.13,0-.27,0-.4a2.88,2.88,0,0,0-.07-.36l-.06-.19-.06-.12-.06.06,0,0-.06.06h0l-.06.06h0l-.06.06,0,0-.07.06Z" fill="url(#h)"/><path d="M302.71,22.87a3,3,0,0,1,.75.17,1.33,1.33,0,0,1,.54.35,1,1,0,0,1,.29.54,1.13,1.13,0,0,1,0,.45,5.16,5.16,0,0,1-.09.52l-.52,2.56c0,.15-.05.3-.08.45a1.47,1.47,0,0,0,0,.41s0,.05,0,.08v.07h0a1.07,1.07,0,0,1,0,.25.2.2,0,0,1-.15.17.33.33,0,0,1-.17,0h-1a.26.26,0,0,1-.14-.06.18.18,0,0,1-.09-.13.53.53,0,0,0-.08-.15l-.06,0s0,0-.08,0l-.13.05-.11.06-.15.08-.15.07a2,2,0,0,1-.34.12l-.34.08-.18,0-.15,0h-.07l-.06,0h-.46a.51.51,0,0,0-.17,0,.2.2,0,0,1-.13,0L299.1,29a.41.41,0,0,1-.19-.05,1.67,1.67,0,0,1-.5-.33,1.06,1.06,0,0,1-.27-.54l0-.17c0-.06,0-.13,0-.2a.2.2,0,0,1,0-.11.5.5,0,0,0,0-.12.85.85,0,0,1,0-.13.91.91,0,0,1,.05-.17.54.54,0,0,0,.05-.19l.12-.25h0a1.83,1.83,0,0,1,.15-.25A1.93,1.93,0,0,1,299,26a2.76,2.76,0,0,1,.71-.3,1.32,1.32,0,0,1,.33-.08l.33-.06a.65.65,0,0,1,.2,0l.22,0a.42.42,0,0,1,.16,0l.18,0,.16,0a.58.58,0,0,0,.18,0l.46-.09a1,1,0,0,0,.41-.21.83.83,0,0,0,.19-.23s0,0,0-.06a.06.06,0,0,1,0,0,.14.14,0,0,0,0-.07.25.25,0,0,0,0-.07v-.17h0a.57.57,0,0,0-.39-.48,1.19,1.19,0,0,0-.24,0,.93.93,0,0,0-.29,0,1.51,1.51,0,0,0-.3,0,1.4,1.4,0,0,0-.24.06.51.51,0,0,0-.15.07l-.14.08-.15.12a.92.92,0,0,0-.11.15,2,2,0,0,0-.14.22.28.28,0,0,1-.2.14.58.58,0,0,1-.19,0h-.65l-.12,0-.09,0h-.17l-.05,0a.16.16,0,0,1-.1-.15.27.27,0,0,1,0-.12l0-.1.12-.23a1.1,1.1,0,0,1,.14-.21l.09-.11h0l.09-.12a2.32,2.32,0,0,1,.28-.24l.08-.06.11-.08.13-.07a2.16,2.16,0,0,1,.45-.19,4.42,4.42,0,0,1,.48-.15l.3-.05.31,0a.32.32,0,0,1,.14,0,.24.24,0,0,0,.13,0A8.14,8.14,0,0,1,302.71,22.87Zm12.81.09a2.33,2.33,0,0,1,.68.37,1.29,1.29,0,0,1,.17.16.8.8,0,0,1,.15.17.25.25,0,0,0,.08.1,1.23,1.23,0,0,1,.12.26c0,.09.08.17.12.27a.72.72,0,0,1,.05.21c0,.07,0,.15,0,.23a1.66,1.66,0,0,1,0,.32l0,.32a.88.88,0,0,1,0,.21.62.62,0,0,0,0,.19l0,.13a.59.59,0,0,1,0,.21.31.31,0,0,1-.12.15.38.38,0,0,1-.17.06l-.26,0h-3.46a.27.27,0,0,0-.13,0,.42.42,0,0,0-.14.09l-.07.09a.27.27,0,0,0,0,.12.33.33,0,0,1,0,.14.53.53,0,0,0,0,.12,1.32,1.32,0,0,0,.13.46,1,1,0,0,0,.3.31.56.56,0,0,0,.17.09.71.71,0,0,1,.2,0,1.19,1.19,0,0,0,.24,0,1.32,1.32,0,0,0,.29,0h.1l.22,0,.21-.07h0l.28-.15a1.17,1.17,0,0,0,.26-.18.54.54,0,0,1,.15-.15.38.38,0,0,1,.17-.12.67.67,0,0,1,.3-.05H316a.32.32,0,0,1,.14,0h.11a.37.37,0,0,1,.15,0s0,.05,0,.11a.23.23,0,0,1,0,.14,2,2,0,0,1-.19.28l-.21.26a3.52,3.52,0,0,1-.69.61,4.1,4.1,0,0,1-.89.39l-.26.06a1.45,1.45,0,0,0-.28,0,.17.17,0,0,1-.1,0h-.22a.34.34,0,0,1-.14,0l-.13,0h-.16a.27.27,0,0,1-.15,0l-.12,0-.12,0-.25-.06a.66.66,0,0,1-.21-.08l-.22-.08a.78.78,0,0,1-.18-.11,2.57,2.57,0,0,1-.56-.53,2.3,2.3,0,0,1-.37-1,1.27,1.27,0,0,0,0-.28v-.08h0a.28.28,0,0,0,0-.09,1.5,1.5,0,0,1,0-.3l0-.32h0a.57.57,0,0,0,0-.13l0-.13,0-.14.09-.27.15-.38a1.89,1.89,0,0,1,.17-.35,4,4,0,0,1,2-1.69,1.13,1.13,0,0,1,.35-.09l.36-.08.18,0h.17A2.78,2.78,0,0,1,315.52,23Zm-23.85-2.24a.34.34,0,0,1,.27.08A.19.19,0,0,1,292,21a1.55,1.55,0,0,0,0,.21c0,.12,0,.25,0,.38a2.32,2.32,0,0,1,.06.38q.13.72.21,1.47c.06.5.13,1,.22,1.49,0,.15.05.31.07.47a3.54,3.54,0,0,0,.07.47l0,.12a.24.24,0,0,0,.06.09l0,0a.07.07,0,0,0,.06,0,.25.25,0,0,0,.15-.14c0-.08.08-.14.11-.21s.18-.35.27-.51a5.36,5.36,0,0,1,.28-.53l.73-1.41c.26-.48.51-1,.75-1.43a3.9,3.9,0,0,1,.19-.35c.06-.13.13-.25.19-.37l.11-.19a.39.39,0,0,1,.16-.15.27.27,0,0,1,.18-.05h2a.22.22,0,0,1,.16,0c.08,0,.1.14.07.27s0,.25-.07.38l-.34,1.72L297,27.42l-.19,1-.06.25a.29.29,0,0,1-.12.18.48.48,0,0,1-.18.07h-1.09l-.15,0a.15.15,0,0,1-.1-.08.24.24,0,0,1,0-.15c0-.06,0-.13,0-.2l.11-.58.6-3c0-.11,0-.21.05-.3l.06-.3,0-.19a.62.62,0,0,0,0-.19v-.17c0-.07,0-.1,0-.12a.07.07,0,0,0-.06,0l0,0h0a.57.57,0,0,0-.11.11l-.06.12h0l-.21.35a2.71,2.71,0,0,1-.21.37l-.07.14h0a.46.46,0,0,1-.07.14c-.06.1-.12.2-.17.3s-.1.2-.16.3a.2.2,0,0,0,0,.08s0,0,0,.07a1.59,1.59,0,0,0-.13.22,1.71,1.71,0,0,1-.12.23,1.59,1.59,0,0,0-.13.22,1.71,1.71,0,0,1-.12.23c-.13.22-.26.45-.38.68s-.23.44-.35.66a.23.23,0,0,0-.05.07.09.09,0,0,1,0,.07,1.43,1.43,0,0,0-.15.27l-.14.25-.09.15a.38.38,0,0,1-.11.11.27.27,0,0,1-.12.06l-.15,0h-.88a.32.32,0,0,1-.13-.05.31.31,0,0,1-.1-.13.83.83,0,0,0-.05-.18l0-.28a1.47,1.47,0,0,0,0-.29v-.1a1.35,1.35,0,0,1,0-.29,2.68,2.68,0,0,0-.05-.3v-.05h0a.15.15,0,0,0,0-.07,1.74,1.74,0,0,1-.05-.22,1.6,1.6,0,0,0,0-.23v-.06h0s0,0,0-.06a1.57,1.57,0,0,1,0-.23.91.91,0,0,0,0-.23c0-.15-.06-.31-.08-.48s0-.34-.07-.5-.06-.39-.08-.58a2.71,2.71,0,0,0-.11-.58.67.67,0,0,0-.07-.27l0,0s0,0-.05,0a.19.19,0,0,0-.09.12.58.58,0,0,1-.05.16.34.34,0,0,0-.05.17l0,.17a2.38,2.38,0,0,1-.05.26l-.06.25-.61,3.06-.12.57,0,.18h0a.26.26,0,0,1-.07.15.3.3,0,0,1-.2.1.47.47,0,0,1-.17,0h-1a.38.38,0,0,1-.17-.07.24.24,0,0,1,0-.18l0-.25h0l.2-1,.86-4.29.33-1.61a1,1,0,0,1,0-.16,1.17,1.17,0,0,1,.05-.2c0-.06,0-.12,0-.17a.64.64,0,0,1,.06-.14.38.38,0,0,1,.21-.11s0,0,0,0h1.94ZM323,23a1.19,1.19,0,0,1,.6.65.77.77,0,0,1,.07.27,2.54,2.54,0,0,1,0,.29v.17a.43.43,0,0,0,0,.16.24.24,0,0,0,0,.1,2.11,2.11,0,0,1,0,.33c0,.11-.05.23-.07.33l-.2,1L323,28.22l-.09.43a.3.3,0,0,1-.22.25.38.38,0,0,1-.16,0h-1.05a.22.22,0,0,1-.15-.11.3.3,0,0,1,0-.17c0-.08,0-.16,0-.24l.16-.81.34-1.72a6.2,6.2,0,0,0,.12-.78,1.12,1.12,0,0,0-.08-.62.65.65,0,0,0-.4-.32.31.31,0,0,0-.13,0,.25.25,0,0,1-.12,0,.38.38,0,0,0-.15,0h-.22l-.06,0a1.44,1.44,0,0,0-.47.18,1.39,1.39,0,0,0-.59.77,9.44,9.44,0,0,0-.29,1.14l-.29,1.44-.14.7,0,.21a.54.54,0,0,1-.07.17.3.3,0,0,1-.22.15,1.42,1.42,0,0,1-.31,0h-.83c-.09,0-.14,0-.16-.09a.34.34,0,0,1,0-.29c0-.14.06-.26.08-.37l.32-1.57.5-2.53.13-.59c0-.08,0-.16,0-.23a.28.28,0,0,1,.11-.17s0,0,.08,0l.11,0h.06l.12,0h.61l.17,0a.39.39,0,0,1,.16,0,.13.13,0,0,1,.08.1.41.41,0,0,1,0,.16.19.19,0,0,1,0,.08v.07a.15.15,0,0,0,0,.07l0,0a.32.32,0,0,0,.22-.08.73.73,0,0,1,.21-.16,3.15,3.15,0,0,1,.76-.37,1,1,0,0,1,.22-.05l.25,0a.2.2,0,0,1,.11,0l.09,0A2.19,2.19,0,0,1,323,23Zm-20.9,3.13-.08,0h-.09l-.17,0-.2,0h-.1a1.76,1.76,0,0,1-.31,0,1.59,1.59,0,0,0-.3.06l-.19.05h0l-.16,0a1.48,1.48,0,0,0-.47.31.88.88,0,0,0-.24.58.46.46,0,0,0,.07.32.35.35,0,0,0,.19.21,1.13,1.13,0,0,0,.34.1,1.63,1.63,0,0,0,.39,0l.41-.08a1.24,1.24,0,0,0,.53-.29,1.76,1.76,0,0,0,.37-.51l.06-.16a.67.67,0,0,1,.07-.18l0-.11a.53.53,0,0,0,0-.12.93.93,0,0,0,0-.14.53.53,0,0,1,0-.13.1.1,0,0,0,0-.09A.22.22,0,0,0,302.08,26.16ZM314.31,24a.08.08,0,0,1-.08,0h-.08l-.14,0-.13,0a1.62,1.62,0,0,0-.87.63l-.08.13a.51.51,0,0,0-.07.15.34.34,0,0,0,0,.14.12.12,0,0,0,.05.11.43.43,0,0,0,.24.06h1.93a.32.32,0,0,0,.25-.1.31.31,0,0,0,.07-.28,1.61,1.61,0,0,1,0-.25.84.84,0,0,0-.34-.47A1.19,1.19,0,0,0,314.31,24Z" fill="#fff"/><path d="M310.74,22.74l-.05,0,0,0-.07,0,0,0h0l0,0h0l0,0h0l0,0h0l0,0h0l-.05,0h0l0,0h0l-.05,0h0l-.05,0h0l-.05.05h0l-.05,0,0,0,.17.47a5.12,5.12,0,0,1,.55-.51l.06,0h0l0,0h0l0,0h0l-.05.05h0l0,0h0l0,0h0l0,0h0l-.05.06h0l-.05,0h0l-.07.08h0l0,0h0l0,0h0l-.06.07h0l0,.05h.92a1.19,1.19,0,0,0,.08-.48v0h0v-.06h0v0h0v0h0v0h0v0h0v0h0l0,0h0v0h0v0h0v0h0v0h0v0A.33.33,0,0,0,310.74,22.74Z" fill="url(#i)"/><path d="M307.67,27.62l.07-.13h0l.1-.17h0l.08-.15.05-.07.09-.17h0l.09-.15.05-.08c0-.08.09-.16.14-.24l.09-.15h0l.23-.38.1-.14,0-.07.07-.1h0l.08-.12h0l.07-.12h0l0-.05h0l.07-.1h0v0h0l0,0h0l0-.05h0l-.1.15-.12.17,0,.05-.18.28-.06.1c-.09.12-.17.25-.25.38s-.15.26-.23.38l-.15.26-.07.12-.23.4a.56.56,0,0,1-.05.08l-.17.31,0,.08h0l.14-.26Z" fill="none"/><path d="M309.37,24.77l.28-.36.28-.35,0,0c.09-.1.18-.21.28-.31l-.17-.47,0,0h0l0,0h0l-.25.24-.15.15-.1.11-.05.05c-.1.1-.19.21-.29.32l-.18.21-.08.08h0l.22.65.08-.12h0Z" fill="url(#j)"/><path d="M307.52,27.89l0,.06h0l-.08.16,0,.08-.05.08h0s0,0,0,.05l-.05.09h0l-.1.2h0a.68.68,0,0,1,.19.3.55.55,0,0,0-.11-.36,1.05,1.05,0,0,0,1.07-.26l.07-.09a.43.43,0,0,1-.41.1h0a1.15,1.15,0,0,0,.66-.4l.13-.15a1,1,0,0,1-1,.16Z" fill="url(#k)"/><path d="M307.67,27.44l.09-.16h0l.15-.26h0c.08-.12.15-.25.23-.38s.15-.25.23-.38l.24-.39.25-.38.09-.13.16-.23h0l-.22-.64h0l-.27.32-.26.34-.21.3,0,.06h0c-.09.13-.17.25-.24.37a3.84,3.84,0,0,0-.22.39,1.71,1.71,0,0,0-.12.23.88.88,0,0,0-.09.2,4.32,4.32,0,0,0-.19.45l.22.65,0-.07h0l.08-.16.05-.08,0-.06Z" fill="url(#l)"/><path d="M307.24,27.19a4,4,0,0,0-.15.49l0,.09h0a1,1,0,0,0-.08-.14l0,0h0l0,0h0l0,0h0l0,0h0l0,0h0l0,0h0l0,0h0l0,0h0a1.69,1.69,0,0,1,.22.83.69.69,0,0,1-.37-.12.9.9,0,0,0,.17.17l0,0h0l0,0h.08a.81.81,0,0,0-.4.11l0,0h0l0,0h0a1,1,0,0,1,.55,0l-.18.36-.1.19-.43.88-.1.21a2,2,0,0,1-.1.21.19.19,0,0,0,.15-.11l.11-.23h0l.1-.21h0l.13-.27h0l.11-.23h0l.12-.22h0l.1-.21h0l.15-.29h0l.11-.2h0l0-.07h0l0-.06h0l0-.05h0l0-.08h0l.09-.17.05-.08,0-.08h0l-.22-.65v0Z" fill="url(#m)"/><path d="M309.16,25.18l0,.05h0a.61.61,0,0,0-.07.1l-.11.17h0l-.08.12h0l0,0-.09.14-.1.14h0l-.18.3-.05.08c-.08.13-.16.26-.23.39l-.1.15c0,.08-.09.16-.13.25l-.09.14-.14.25h0l0,.07h0l-.08.16-.09.16h.23a1.69,1.69,0,0,0,1-.39,2.12,2.12,0,0,0,.39-.4,3.29,3.29,0,0,0,.27-.39c.07-.13.15-.27.23-.43a1,1,0,0,1-.25,0h-.09a1,1,0,0,0,.65-.47,1.17,1.17,0,0,1-.35.09h-.07a.74.74,0,0,0,.26-.1l0,0h0l.07-.05,0,0h0a.76.76,0,0,0,.09-.09l0,0v0l0,0h0l.11-.17,0,0,0-.07,0,0h0l0-.05v0h0v-.06h0l0,0h0a1.28,1.28,0,0,1-.36.07h0l-.79,0Z" fill="url(#n)"/><path d="M310.26,23.75l-.09.1-.06.07h0l-.06.07h0l-.08.1h0l-.14.17-.07.09,0,0-.1.13h0l-.06.09-.11.14,0,0-.11.15-.07.1h0l-.07.11h0l.78,0a1,1,0,0,0,.47-.27l.07-.08,0,0c.09-.11.19-.23.28-.36a3,3,0,0,0,.23-.35l.1-.19a1.31,1.31,0,0,1,.05-.15h-.92Z" fill="url(#o)"/><rect x="337.5" width="48" height="48" rx="11.25" fill="#242938"/><path d="M351.68,7.13l6.49,11.24-6.5,11.26-6.48-11.26Z" fill="#59666c"/><path d="M364.66,7.13h-13l6.49,11.24h13Z" fill="#bcae79"/><path d="M371.15,40.88l-6.49-11.25,6.49-11.26,6.49,11.26Z" fill="#59666c"/><path d="M358.17,40.87h13l-6.49-11.24h-13Z" fill="#bcae79"/><rect x="393.75" width="48" height="48" rx="11.25" fill="#1b208b"/><path d="M433.64,7.6l-8.33,9.12a30.54,30.54,0,0,1-6.13,18l7.25,1.81C438.52,25.11,433.64,7.6,433.64,7.6Z" fill="#fdb940"/><path d="M425.31,16.72a27.43,27.43,0,0,0-.35-5.28L406.58,31.57l12.57,3.15s0,0,0,0l-8.36-2.1Z" fill="#feb322"/><path d="M410.83,32.58l8.36,2.1a30.43,30.43,0,0,0,6.13-18Z" fill="#f98200"/><path d="M422.46,36.77c.73,0,1.44,0,2.14.09L400.89,31s4.41,1.47,9.74,9.44A19.12,19.12,0,0,1,422.46,36.77Z" fill="#fff"/><rect x="450" width="48" height="48" rx="11.25" fill="#242938"/><path d="M481.05,39.49l-6.08,0-3-5.25L475,29l6.08,0,3,5.24Z" fill="#fff"/><path d="M472.27,34.44l-6.07,0-3-5.24L466.26,24l6.07,0,3,5.24Z" fill="#fff"/><path d="M481.1,29.4l-6.07,0-3-5.24,3.07-5.21,6.07,0,3,5.25Z" fill="#fff"/><path d="M481.1,19.37l-6.08,0-3-5.25,3.06-5.2,6.08,0,3,5.24Z" fill="#fff"/><path d="M472.32,24.41l-6.08,0-3-5.25,3.07-5.21,6.07,0,3,5.24Z" fill="#fff"/><path d="M480.73,28.73h-5.3l-2.64-4.57,2.67-4.56h5.3l2.64,4.58Z" fill="#c12766"/><path d="M471.9,33.77l-5.3,0L464,29.18l2.67-4.56,5.3,0,2.64,4.57Z" fill="#3e489f"/><path d="M480.68,38.82h-5.31l-2.64-4.58,2.67-4.55h5.31l2.64,4.58Z" fill="#714099"/><path d="M472,23.74l-5.31,0L464,19.15l2.67-4.56,5.31,0,2.64,4.57Z" fill="#78932c"/><path d="M480.73,18.7h-5.31l-2.64-4.58,2.67-4.55h5.31l2.64,4.58Z" fill="#cf242a"/><ellipse cx="478.04" cy="34.25" rx="1.16" ry="1.16" fill="#fff"/><path d="M478.9,13.6l-10.38,5.9" fill="none" stroke="#fff" stroke-width="0.52"/><path d="M469.28,18.28l0,11.88" fill="none" stroke="#fff" stroke-width="0.52"/><path d="M468.56,28.77l10.28,6.07" fill="none" stroke="#fff" stroke-width="0.52"/><path d="M478.06,13.18l0,11.88" fill="none" stroke="#fff" stroke-width="0.52"/><path d="M478.11,23.27l0,11.88" fill="none" stroke="#fff" stroke-width="0.52"/><path d="M478.92,23.71l-10.38,5.91" fill="none" stroke="#fff" stroke-width="0.52"/><path d="M468.59,18.75l10.28,6.07" fill="none" stroke="#fff" stroke-width="0.52"/><ellipse cx="469.15" cy="29.15" rx="1.16" ry="1.16" fill="#fff"/><ellipse cx="478.29" cy="24.27" rx="1.16" ry="1.16" fill="#fff"/><ellipse cx="469.31" cy="19.17" rx="1.16" ry="1.16" fill="#fff"/><ellipse cx="478.09" cy="14.13" rx="1.16" ry="1.16" fill="#fff"/><rect x="506.25" width="48" height="48" rx="11.25" fill="#242938"/><path d="M543.15,21.08H533.8a.86.86,0,0,1-.6-.25.84.84,0,0,1-.25-.6V10.49a1.3,1.3,0,0,0-1.3-1.3h-3.34a1.31,1.31,0,0,0-1.31,1.3v9.68a.9.9,0,0,1-.9.91l-3.07,0a.91.91,0,0,1-.91-.91V10.5a1.29,1.29,0,0,0-1.3-1.31h-3.34a1.3,1.3,0,0,0-1.3,1.3V37.76a1.16,1.16,0,0,0,1.16,1.16h25.8a1.16,1.16,0,0,0,1.16-1.16V22.24A1.16,1.16,0,0,0,543.15,21.08Zm-4.38,10.24a1.52,1.52,0,0,1-1.52,1.52h-2.64a1.52,1.52,0,0,1-1.52-1.52V28.68a1.52,1.52,0,0,1,1.52-1.52h2.64a1.52,1.52,0,0,1,1.52,1.52Z" fill="#f60"/><rect x="562.5" width="48" height="48" rx="11.25" fill="#a9cbd4"/><g clip-path="url(#p)"><path d="M593.06,26a4.87,4.87,0,0,0-3.66,1.67L587.11,26a6.34,6.34,0,0,0,.38-2.14,6.41,6.41,0,0,0-.37-2.11l2.29-1.61A4.87,4.87,0,1,0,588.18,17a4.92,4.92,0,0,0,.2,1.39L586.09,20a6.27,6.27,0,0,0-3.9-2.27V14.92a4.91,4.91,0,1,0-2.1,0v2.8a6.3,6.3,0,0,0,0,12.42v3a4.89,4.89,0,1,0,2.1,0v-3a6.31,6.31,0,0,0,3.84-2.23l2.31,1.63A4.88,4.88,0,1,0,593.06,26Zm0-11.42A2.37,2.37,0,1,1,590.69,17,2.38,2.38,0,0,1,593.06,14.58Zm-14.25-4.44a2.37,2.37,0,1,1,2.37,2.37A2.38,2.38,0,0,1,578.81,10.14Zm4.74,27.69a2.37,2.37,0,1,1-2.37-2.37A2.38,2.38,0,0,1,583.55,37.83ZM581.18,27.2a3.31,3.31,0,1,1,3.3-3.3A3.3,3.3,0,0,1,581.18,27.2Zm11.88,6.05a2.37,2.37,0,1,1,2.37-2.36A2.37,2.37,0,0,1,593.06,33.25Z"/></g><rect x="618.75" width="48" height="48" rx="11.25" fill="#087ed6"/><path d="M655.14,21.49l-.94,2.29a1,1,0,0,1-1.1.58l-2-.45a1.27,1.27,0,0,1-.18-.06,10.29,10.29,0,0,1-2,2A1.34,1.34,0,0,1,649,26l.46,2a1,1,0,0,1-.57,1.11l-2.28.95a1,1,0,0,1-1.19-.37L644.29,28a1.42,1.42,0,0,1-.08-.18,10.22,10.22,0,0,1-2.87,0,.86.86,0,0,1-.11.28l-1,1.55a1.16,1.16,0,0,1-1.35.44l-2.08-.86a1.12,1.12,0,0,1-.66-1.25l.39-1.79a1,1,0,0,1,.12-.28,10.23,10.23,0,0,1-2-2,.64.64,0,0,1-.18.06l-2,.46a1,1,0,0,1-1.11-.57l-1-2.28a1,1,0,0,1,.37-1.18l1.74-1.11a.91.91,0,0,1,.17-.09,10.32,10.32,0,0,1,0-2.83l-.18-.08-1.74-1.1a1,1,0,0,1-.38-1.18l.94-2.29a1,1,0,0,1,1.1-.58l2,.45a.55.55,0,0,1,.18.06,10.29,10.29,0,0,1,2-2,1.34,1.34,0,0,1-.07-.18l-.45-2a1,1,0,0,1,.56-1.11l2.28-1a1,1,0,0,1,1.19.37l1.11,1.74a.53.53,0,0,1,.08.17,10.39,10.39,0,0,1,2.84,0,1.42,1.42,0,0,1,.08-.18l1.1-1.74a1,1,0,0,1,1.18-.38l2.29.94a1,1,0,0,1,.58,1.1l-.45,2a.55.55,0,0,1-.06.18,10.29,10.29,0,0,1,2,2,.64.64,0,0,1,.18-.06l2-.46a1,1,0,0,1,1.11.57l1,2.28a1,1,0,0,1-.37,1.19L653,16.21a1.51,1.51,0,0,1-.18.09,10.32,10.32,0,0,1,0,2.83l.18.08,1.74,1.1a1,1,0,0,1,.38,1.18Zm-8-3.74a4.39,4.39,0,1,0-4.39,4.39,4.4,4.4,0,0,0,4.39-4.39Z" fill="#fff"/><text transform="translate(629.3 40.53)" font-size="10.9" fill="#fff" font-family="Lexend-Bold, Lexend" font-weight="700">REST</text><path d="M645.64,14.24a3.67,3.67,0,0,0-7,1.36,3.29,3.29,0,0,0-2.47,3.13A3.37,3.37,0,0,0,639.48,22h6.13a3.79,3.79,0,0,0,3.68-3.89,3.89,3.89,0,0,0-3.65-3.87" fill="#087ed6" fill-rule="evenodd"/><rect x="675" width="48" height="48" rx="11.25" fill="#087ed6"/><path d="M706,10.84a8.91,8.91,0,0,0-16.89,3.29,8,8,0,0,0-6,7.59A8.17,8.17,0,0,0,691,29.65h14.88a9.19,9.19,0,0,0,8.92-9.42A9.41,9.41,0,0,0,706,10.84" fill="#fff" fill-rule="evenodd"/><path d="M705.65,18.92v1.27a.53.53,0,0,1-.42.5l-1,.18h-.1a5.37,5.37,0,0,1-.57,1.35.27.27,0,0,1,.07.08l.61.86a.53.53,0,0,1-.05.65l-.9.9a.53.53,0,0,1-.64.05l-.87-.61-.07-.07a5.67,5.67,0,0,1-1.37.57.38.38,0,0,1,0,.15l-.16.93a.6.6,0,0,1-.56.47h-1.16a.6.6,0,0,1-.56-.47l-.16-.93a.38.38,0,0,1,0-.15,5.67,5.67,0,0,1-1.37-.57l-.07.07-.87.61a.53.53,0,0,1-.64-.05l-.9-.91a.51.51,0,0,1-.05-.64l.61-.86.06-.08a5.74,5.74,0,0,1-.56-1.35h-.1l-1-.18a.53.53,0,0,1-.42-.5V18.92a.52.52,0,0,1,.42-.49l1-.18h.1a6.11,6.11,0,0,1,.56-1.35l-.06-.07L693.8,16a.51.51,0,0,1,.05-.64l.9-.9a.51.51,0,0,1,.64-.06l.87.62s0,0,.07.06a5.57,5.57,0,0,1,1.36-.56.17.17,0,0,1,0-.1l.18-1a.52.52,0,0,1,.49-.42h1.28a.52.52,0,0,1,.49.42l.18,1a.17.17,0,0,1,0,.1,5.57,5.57,0,0,1,1.36.56s0,0,.07-.06l.87-.62a.51.51,0,0,1,.64.06l.9.9a.51.51,0,0,1,.05.64l-.61.87a.23.23,0,0,1-.07.07,5.53,5.53,0,0,1,.57,1.35h.1l1,.18a.52.52,0,0,1,.42.49Zm-4.39.64A2.26,2.26,0,1,0,699,21.82a2.26,2.26,0,0,0,2.26-2.26Z" fill="#087ed6"/><text transform="translate(683.81 40.53)" font-size="10.9" fill="#fff" font-family="Lexend-Bold, Lexend" font-weight="700">S<tspan x="6.91" y="0" letter-spacing="-0.02em">O</tspan><tspan x="15.54" y="0">AP</tspan></text><rect x="731.25" width="48" height="48" rx="11.25" fill="#242938"/><path d="M740.28,16.94a4.87,4.87,0,0,0-1,1l.41.77a8.31,8.31,0,0,1,.87-1.09l0,0,0,0a7.59,7.59,0,0,0-.82,1.11,14.83,14.83,0,0,0,1.58-.2,1.66,1.66,0,0,0-.15-1.27S740.74,16.66,740.28,16.94Z" fill="url(#q)"/><path d="M739.58,21.33h0Z" fill="none"/><path d="M739.17,22.7l-.1,0Z" fill="none"/><path d="M736.34,25.8a.08.08,0,0,0,0,0q.14-.36.27-.69l.29-.73c.1-.25.21-.49.3-.73l.31-.7.24-.54a1.3,1.3,0,0,0,.08-.17c.06-.11.11-.22.16-.33s.09-.19.14-.29l0-.09v0h-.05l0-.08s0,0,0,0-.15.28-.22.43l-.12.25-.33.71-.31.72c-.11.24-.21.48-.31.71s-.19.47-.28.71-.2.49-.29.73l-.06.16-.22.57.07.13h.05s0,0,0,0C736.16,26.27,736.25,26,736.34,25.8Z" fill="none"/><path d="M739,22.72Z" fill="none"/><path d="M738.91,23.4l-.16,0h.16Z" fill="#be202e"/><path d="M738.91,23.4l-.16,0h.16Z" fill="#be202e" opacity="0.35" style="isolation:isolate"/><path d="M739,22.72h0l.1,0-.13,0Z" fill="#be202e"/><path d="M739,22.72h0l.1,0-.13,0Z" fill="#be202e" opacity="0.35" style="isolation:isolate"/><path d="M738.44,20.74c.13-.23.25-.46.38-.68s.26-.45.4-.67l0,0c.13-.21.27-.42.4-.61l-.4-.77-.1.12c-.11.14-.24.3-.36.47l-.44.6-.41.61-.35.55v0l.53,1Z" fill="url(#r)"/><path d="M736,26.64c-.07.2-.14.39-.21.6h0l0,.09c0,.14-.08.26-.18.53a1.09,1.09,0,0,1,.4.48.83.83,0,0,0-.28-.59A1.85,1.85,0,0,0,737.5,27a.8.8,0,0,0,.08-.16.7.7,0,0,1-.71.26h0a2,2,0,0,0,1-.85c.06-.09.11-.19.17-.3a1.67,1.67,0,0,1-1.58.52l-.43.05A.42.42,0,0,0,736,26.64Z" fill="url(#s)"/><path d="M736.23,25.68l.28-.72c.09-.24.19-.47.29-.71l.3-.71c.1-.24.21-.48.32-.72l.33-.71.12-.25.21-.44s0,0,0,0l-.52-1,0,0-.37.62-.36.65-.29.56a.37.37,0,0,1,0,.11c-.12.24-.22.47-.32.69s-.2.49-.28.72l-.15.43c0,.12-.07.24-.1.36-.08.27-.15.55-.21.83l.54,1.05.21-.57A1.22,1.22,0,0,1,736.23,25.68Z" fill="url(#t)"/><path d="M735.41,25.4a7,7,0,0,0-.14,1s0,0,0,0a2.05,2.05,0,0,0-.61-.53,2.89,2.89,0,0,1,.6,1.37,1.26,1.26,0,0,1-.67-.11,1.35,1.35,0,0,0,.57.35,1.59,1.59,0,0,0-.8.4,1.68,1.68,0,0,1,.95-.18c-.36,1-.73,2.17-1.09,3.38a.3.3,0,0,0,.21-.21c.07-.22.5-1.65,1.18-3.54l.06-.17v0c.07-.2.15-.4.23-.61a.78.78,0,0,1,.05-.14h0l-.53-1.05a0,0,0,0,0,0,0Z" fill="url(#u)"/><path d="M738.18,21.49l0,.09-.14.29c0,.11-.1.22-.16.33a1.3,1.3,0,0,1-.08.17l-.24.54-.31.7c-.09.24-.2.48-.3.73l-.29.73q-.14.33-.27.69a.08.08,0,0,1,0,0q-.14.35-.27.72v0l.43-.05h0a3,3,0,0,0,1.63-.92,3.82,3.82,0,0,0,.56-.77A6.53,6.53,0,0,0,739,24c.1-.24.19-.5.29-.79a1.32,1.32,0,0,1-.41.14l-.08,0h-.08a1.86,1.86,0,0,0,1-1,2,2,0,0,1-.58.25l-.1,0h0a2.52,2.52,0,0,0,.43-.24l.07-.06.11-.1.06-.07.13-.18a.25.25,0,0,0,0-.07l0-.09c.06-.13.12-.25.16-.36a1.21,1.21,0,0,0,0-.14.14.14,0,0,0,0-.06,1.12,1.12,0,0,0,.05-.13,1.06,1.06,0,0,1,0-.14h0l-.06,0a2,2,0,0,1-.59.21l.39-.05-.39.05h-.06l-1.35.14A0,0,0,0,1,738.18,21.49Z" fill="url(#v)"/><path d="M739.7,18.77q-.18.27-.39.63l0,0c-.13.21-.25.43-.39.68s-.24.44-.37.69-.22.44-.34.68l1.35-.15a1.59,1.59,0,0,0,.73-.58,1.1,1.1,0,0,0,.14-.21,6.56,6.56,0,0,0,.4-.69,6,6,0,0,0,.29-.65,3.79,3.79,0,0,0,.12-.36,1.31,1.31,0,0,0,.06-.27A14.83,14.83,0,0,1,739.7,18.77Z" fill="url(#w)"/><path d="M738.83,23.41l-.08,0h0Z" fill="#be202e"/><path d="M738.83,23.41l-.08,0h0Z" fill="#be202e" opacity="0.35" style="isolation:isolate"/><path d="M738.83,23.41l-.08,0h0Z" fill="url(#x)"/><path d="M739,22.72h0Z" fill="#be202e"/><path d="M739,22.72h0Z" fill="#be202e" opacity="0.35" style="isolation:isolate"/><path d="M739,22.72h0Z" fill="url(#y)"/><path d="M739,22.72Z" fill="#be202e"/><path d="M739,22.72Z" fill="#be202e" opacity="0.35" style="isolation:isolate"/><path d="M739,22.72Z" fill="url(#z)"/><path d="M739.66,21.31v.19h0v-.19h-.07v0h.19v0Z" fill="#b0afb0"/><path d="M740,21.35l-.06.13h0l-.07-.13v.15h-.05v-.24h.07l.06.13.07-.13H740v.24h0v-.15Z" fill="#b0afb0"/><path d="M741.87,30.75a5.15,5.15,0,0,1-.59,0,3.34,3.34,0,0,1-.43-.08V29.3l.41.07a3.09,3.09,0,0,0,.45,0,1.52,1.52,0,0,0,.44,0,.77.77,0,0,0,.36-.18.71.71,0,0,0,.24-.34,1.36,1.36,0,0,0,.09-.53V20.93h1.61v7.31a2.94,2.94,0,0,1-.19,1.13,2,2,0,0,1-.53.78,2.16,2.16,0,0,1-.81.46,3.81,3.81,0,0,1-1,.14" fill="#d22128" stroke="#d22128" stroke-linejoin="round" stroke-width="1.23"/><path d="M745.87,20.82v7.6h1.44V24.88c0-.09,0-.2,0-.32s0-.25,0-.38,0-.27,0-.4,0-.27,0-.4c0-.29,0-.6,0-.92h0l1.66,6h1.48l1.8-6h0c0,.32,0,.62,0,.91,0,.12,0,.25,0,.38s0,.26,0,.39,0,.25,0,.37v3.9h1.5v-7.6h-2.19l-1.75,5.81h0l-1.64-5.81Zm15.07.55-.45,1.23-.88.53v.67h.76v2.8a2.76,2.76,0,0,0,.14.93,1.4,1.4,0,0,0,.38.59,1.29,1.29,0,0,0,.56.31,2.71,2.71,0,0,0,.71.09,2.74,2.74,0,0,0,.72-.08,2.2,2.2,0,0,0,.55-.19V27.08l-.43.13a2.12,2.12,0,0,1-.44.05.64.64,0,0,1-.44-.16.68.68,0,0,1-.16-.5V23.8h1.41V22.61H762V21.37Zm-4.06,1.13a3.06,3.06,0,0,0-1.08.19,2.12,2.12,0,0,0-.83.58,2.66,2.66,0,0,0-.54.95,4.15,4.15,0,0,0-.19,1.33,3.73,3.73,0,0,0,.21,1.32,2.47,2.47,0,0,0,.59.92,2.3,2.3,0,0,0,.9.55,3.51,3.51,0,0,0,1.15.18,5.41,5.41,0,0,0,.59,0,2.73,2.73,0,0,0,.51-.07c.15,0,.3-.08.44-.12l.42-.19V26.88a4.54,4.54,0,0,1-.45.21l-.44.14a3.4,3.4,0,0,1-.46.09l-.5,0a1.48,1.48,0,0,1-.57-.1,1.19,1.19,0,0,1-.42-.28,1.42,1.42,0,0,1-.27-.45,2.21,2.21,0,0,1-.1-.6h3.54v-.77A3.21,3.21,0,0,0,759.2,24a2.1,2.1,0,0,0-.5-.83,1.87,1.87,0,0,0-.79-.51,2.78,2.78,0,0,0-1-.18Zm9.53,0a3.14,3.14,0,0,0-1.08.19,2.19,2.19,0,0,0-.83.58,2.5,2.5,0,0,0-.53.95,4.13,4.13,0,0,0-.2,1.33,3.73,3.73,0,0,0,.21,1.32,2.47,2.47,0,0,0,.59.92,2.42,2.42,0,0,0,.91.55,3.51,3.51,0,0,0,1.15.18,5.41,5.41,0,0,0,.59,0,2.51,2.51,0,0,0,.5-.07c.16,0,.3-.08.44-.12s.29-.12.42-.19V26.88l-.44.21-.45.14a3.12,3.12,0,0,1-.46.09l-.5,0a1.4,1.4,0,0,1-.56-.1,1.19,1.19,0,0,1-.42-.28,1.13,1.13,0,0,1-.27-.45,2.21,2.21,0,0,1-.11-.6h3.54v-.77a3.22,3.22,0,0,0-.17-1.12,2.22,2.22,0,0,0-.5-.83,1.93,1.93,0,0,0-.79-.51,2.84,2.84,0,0,0-1-.18Zm6,0a2,2,0,0,0-.52.07,1.42,1.42,0,0,0-.41.2,1.56,1.56,0,0,0-.32.31,2.33,2.33,0,0,0-.27.4h-.08l-.23-.87h-1.2v5.81h1.58v-3a2.29,2.29,0,0,1,.1-.69,1.25,1.25,0,0,1,.29-.46,1.12,1.12,0,0,1,.44-.25,2,2,0,0,1,.56-.08h.45l.11,0V22.55l-.09,0h-.41Zm-15.48,1.13a1,1,0,0,1,.43.09.9.9,0,0,1,.32.26,1.21,1.21,0,0,1,.18.38,1.93,1.93,0,0,1,.07.49h-2a1.47,1.47,0,0,1,.32-.93.93.93,0,0,1,.7-.29Zm9.53,0a1,1,0,0,1,.44.09.86.86,0,0,1,.31.26,1.23,1.23,0,0,1,.19.38,2.52,2.52,0,0,1,.07.49h-2a1.47,1.47,0,0,1,.31-.93,1,1,0,0,1,.7-.29Z" fill="#fff"/><path d="M773.91,22.59h-.35V21.22h-.42v-.3h1.19v.3h-.42v1.37" fill="#fff"/><path d="M775.25,22.59l-.36-1.31h0a1.48,1.48,0,0,0,0,.21v.17a.25.25,0,0,1,0,.08v.85h-.32V20.92h.48l.36,1.28h0l.38-1.28h.48v1.67H776v-1.1c0-.07,0-.14,0-.2h0l-.39,1.3h-.33" fill="#fff"/><path d="M742.82,19.76,744,17h.21l1.14,2.72H745l-.36-.85h-1.22l-.35.85Zm1.25-2.4-.56,1.34h1.1Z" fill="#d22128"/><path d="M745.6,19.76V17h1.13a.85.85,0,0,1,.8.86.82.82,0,0,1-.78.86h-.88v1Zm.27-1.24h.87a.58.58,0,0,0,.53-.62.59.59,0,0,0-.56-.62h-.84Z" fill="#d22128"/><path d="M747.38,19.76,748.52,17h.22l1.14,2.72h-.29l-.36-.85H748l-.34.85Zm1.25-2.4-.56,1.34h1.11Z" fill="#d22128"/><path d="M751.16,17a1.06,1.06,0,0,1,1,.59l-.21.13a.85.85,0,0,0-.8-.48,1.06,1.06,0,0,0-1,1.12,1.1,1.1,0,0,0,1,1.15A.91.91,0,0,0,752,19l.23.12a1.2,1.2,0,0,1-1.08.63,1.37,1.37,0,0,1-1.27-1.4A1.31,1.31,0,0,1,751.16,17Z" fill="#d22128"/><path d="M754.73,17v2.72h-.26V18.49h-1.61v1.27h-.27V17h.27v1.21h1.61V17Z" fill="#d22128"/><path d="M757.17,19.52v.24h-1.82V17h1.79v.24h-1.53v1h1.33v.23h-1.33v1Z" fill="#d22128"/><rect x="787.5" width="48" height="48" rx="11.25" fill="#ff6c37"/><path d="M819.2,16.61l-9.48,9.48-2.67-2.67C816.37,14.1,817.29,14.91,819.2,16.61Z" fill="#eee"/><path d="M809.72,26.32a.21.21,0,0,1-.15-.07l-2.7-2.67a.22.22,0,0,1,0-.32c9.48-9.47,10.46-8.58,12.46-6.78a.19.19,0,0,1,.07.16.18.18,0,0,1-.07.15l-9.47,9.46A.17.17,0,0,1,809.72,26.32Zm-2.36-2.9,2.36,2.36,9.14-9.14C817.2,15.15,816.08,14.71,807.36,23.42Z" fill="#ff6c37"/><path d="M812.44,28.81l-2.58-2.58,9.47-9.48C821.87,19.31,818.08,23.46,812.44,28.81Z" fill="#eee"/><path d="M812.44,29a.23.23,0,0,1-.16-.06l-2.58-2.59a.19.19,0,0,1,0-.15.21.21,0,0,1,.06-.16l9.48-9.48a.21.21,0,0,1,.31,0,2.72,2.72,0,0,1,.88,2.09c0,2.49-2.88,5.66-7.77,10.29A.42.42,0,0,1,812.44,29Zm-2.27-2.8c1.44,1.46,2.05,2,2.27,2.26,3.77-3.59,7.43-7.27,7.46-9.81a2.44,2.44,0,0,0-.59-1.62Z" fill="#ff6c37"/><path d="M807.1,23.49,809,25.4s0,.08,0,.13,0,0,0,0l-4,.86a.4.4,0,0,1-.43-.32.33.33,0,0,1,.09-.29L807,23.51C807,23.46,807.07,23.44,807.1,23.49Z" fill="#eee"/><path d="M804.94,26.63a.6.6,0,0,1-.4-1l2.29-2.29a.31.31,0,0,1,.44,0l1.91,1.91a.28.28,0,0,1,0,.44.29.29,0,0,1-.15.09l-4,.86Zm2.09-2.9-2.2,2.2a.14.14,0,0,0,0,.18.12.12,0,0,0,.16.07l3.71-.81Z" fill="#ff6c37"/><path d="M824.21,11.36a3.64,3.64,0,1,0-.63,5.75L821,14.55Z" fill="#eee"/><path d="M821.69,17.85a3.86,3.86,0,1,1,2.67-6.65.22.22,0,0,1,0,.32l-3,3,2.38,2.38a.21.21,0,0,1,0,.31l0,.05A3.82,3.82,0,0,1,821.69,17.85Zm0-7.25a3.4,3.4,0,1,0,0,6.8,3.2,3.2,0,0,0,1.51-.36l-2.36-2.33a.22.22,0,0,1,0-.32l3-3A3.37,3.37,0,0,0,821.69,10.6Z" fill="#ff6c37"/><path d="M824.27,11.43l0,0L821,14.55l2.54,2.54a4.57,4.57,0,0,0,.69-.54A3.59,3.59,0,0,0,824.27,11.43Z" fill="#eee"/><path d="M823.58,17.33a.23.23,0,0,1-.16-.06l-2.56-2.56a.22.22,0,0,1,0-.32l3.19-3.19a.21.21,0,0,1,.31,0l.07.05a3.86,3.86,0,0,1,0,5.45,3.49,3.49,0,0,1-.74.59Zm-2.25-2.78,2.27,2.27a2.88,2.88,0,0,0,.49-.41,3.42,3.42,0,0,0,.12-4.71Z" fill="#ff6c37"/><path d="M819.58,17a1.38,1.38,0,0,0-2,0l-8.47,8.46,1.42,1.42,9-7.86a1.39,1.39,0,0,0,.13-1.95Z" fill="#eee"/><path d="M810.55,27.12a.2.2,0,0,1-.15-.06L809,25.64a.21.21,0,0,1,0-.31l8.47-8.47a1.6,1.6,0,0,1,2.27,0,1.62,1.62,0,0,1,0,2.27l-.07.07-9,7.86S810.62,27.12,810.55,27.12Zm-1.07-1.64,1.1,1.11,8.8-7.73a1.16,1.16,0,0,0-1.51-1.77.23.23,0,0,1-.09.06Z" fill="#ff6c37"/><path d="M802.67,35.12a.19.19,0,0,0-.11.22l.38,1.62a.43.43,0,0,1-.29.56.47.47,0,0,1-.5-.13l-2.47-2.45,8.07-8.06,2.78,0,1.89,1.89A41.71,41.71,0,0,1,802.67,35.12Z" fill="#eee"/><path d="M802.49,37.75a.59.59,0,0,1-.47-.21l-2.45-2.44a.24.24,0,0,1,0-.32l8.06-8.06a.31.31,0,0,1,.16-.07l2.79.05a.2.2,0,0,1,.15.06l1.89,1.89a.29.29,0,0,1,.07.18.19.19,0,0,1-.09.16l-.16.13a45.23,45.23,0,0,1-9.63,6.18l.38,1.59a.72.72,0,0,1-.34.77A.87.87,0,0,1,802.49,37.75ZM800,34.94l2.31,2.29a.24.24,0,0,0,.41-.23l-.38-1.61a.4.4,0,0,1,.22-.47,47.05,47.05,0,0,0,9.55-6.11l-1.67-1.66-2.58,0Z" fill="#ff6c37"/><path d="M797.78,36.87l1.93-1.93,2.87,2.87L798,37.5a.35.35,0,0,1-.31-.41A.25.25,0,0,1,797.78,36.87Z" fill="#eee"/><path d="M802.58,38,798,37.7a.58.58,0,0,1-.54-.65.57.57,0,0,1,.18-.36l1.93-1.93a.21.21,0,0,1,.31,0l2.88,2.87a.2.2,0,0,1,0,.25A.21.21,0,0,1,802.58,38Zm-2.87-2.77L797.93,37a.13.13,0,0,0,0,.2.15.15,0,0,0,.09,0l4,.27Z" fill="#ff6c37"/><path d="M807,27.91a.22.22,0,0,1-.22-.22.21.21,0,0,1,.06-.16L809,25.35a.22.22,0,0,1,.32,0l1.41,1.42a.21.21,0,0,1,.07.22.27.27,0,0,1-.18.16l-3.59.76Zm2.18-2.09-1.48,1.48,2.42-.51Z" fill="#ff6c37"/><path d="M810.53,26.92l-2.47.54a.33.33,0,0,1-.4-.25.31.31,0,0,1,.09-.31l1.37-1.37Z" fill="#eee"/><path d="M808,27.69a.56.56,0,0,1-.57-.57.65.65,0,0,1,.16-.4L809,25.35a.22.22,0,0,1,.32,0l1.41,1.42a.21.21,0,0,1,.07.22.27.27,0,0,1-.18.16l-2.47.54Zm1.12-1.87L807.93,27a.11.11,0,0,0,0,.14.16.16,0,0,0,.14.07l2.06-.45Z" fill="#ff6c37"/><path d="M824.3,13.58a.27.27,0,0,0-.34-.15.26.26,0,0,0-.16.33s0,.05,0,.07a.84.84,0,0,1-.08.85.27.27,0,0,0,0,.36.26.26,0,0,0,.36,0A1.35,1.35,0,0,0,824.3,13.58Z" fill="#ff6c37"/><rect y="56.25" width="48" height="48" rx="11.25" fill="#242938"/><path d="M10.26,89.45A1.5,1.5,0,1,0,11.65,91a1.4,1.4,0,0,0-1.39-1.5m-.19-.93a1.9,1.9,0,0,1,1.5.72v-.62h1V93.3h-.8a.23.23,0,0,1-.23-.24v-.39a1.86,1.86,0,0,1-1.5.72,2.44,2.44,0,0,1,0-4.87m3.7.1h1v.63a1.62,1.62,0,0,1,1.43-.73,1.76,1.76,0,0,1,1.78,2V93.3h-.78a.24.24,0,0,1-.24-.24V90.65c0-.74-.37-1.19-1-1.19S14.8,90,14.8,91V93.3H14a.23.23,0,0,1-.23-.24Zm7.5.83A1.5,1.5,0,1,0,22.66,91a1.4,1.4,0,0,0-1.39-1.5m-.19-.93a1.9,1.9,0,0,1,1.5.72v-3h1v7h-.79a.23.23,0,0,1-.23-.24v-.39a1.86,1.86,0,0,1-1.5.72,2.44,2.44,0,0,1,0-4.87m3.7.1h1v.83a1.34,1.34,0,0,1,1.24-.88,1.81,1.81,0,0,1,.4,0v1a1.82,1.82,0,0,0-.52-.08c-.59,0-1.12.5-1.12,1.43v2.28H25a.24.24,0,0,1-.24-.24Zm5.44,3.81A1.41,1.41,0,0,0,31.63,91a1.41,1.41,0,1,0-1.41,1.48m0,1a2.43,2.43,0,1,1,.05,0h-.05m3.29-4.77h1V93.3h-.79a.23.23,0,0,1-.23-.24Zm.52-1a.69.69,0,1,1,0-1.37.68.68,0,0,1,.68.69.67.67,0,0,1-.68.68m3.8,1.86a1.5,1.5,0,1,0,1.4,1.5,1.4,1.4,0,0,0-1.4-1.5m-.19-.93a1.87,1.87,0,0,1,1.5.72v-3h1v7h-.78a.24.24,0,0,1-.24-.24v-.39a1.84,1.84,0,0,1-1.5.72,2.44,2.44,0,0,1,0-4.87" fill="#fff"/><path d="M31.92,70.57l2.7-4.67a.56.56,0,0,0-.21-.76.56.56,0,0,0-.76.2l-2.73,4.72a16.87,16.87,0,0,0-13.84,0l-2.73-4.72a.56.56,0,0,0-1,.56l2.7,4.67A15.84,15.84,0,0,0,7.81,83.29H40.16a15.9,15.9,0,0,0-8.24-12.72ZM16.55,78.68a1.35,1.35,0,1,1,1.34-1.35h0A1.34,1.34,0,0,1,16.55,78.68Zm14.89,0a1.35,1.35,0,1,1,1.34-1.35,1.35,1.35,0,0,1-1.34,1.35Z" fill="#3ddc84"/><rect x="56.25" y="56.25" width="48" height="48" rx="11.25" fill="#242938"/><circle cx="80.25" cy="80.78" r="15.16" fill="#757575"/><path d="M69.64,70.17H90.86V91.4H69.64Z" fill="#bdbdbd"/><path d="M90.86,70.17,80.25,91.4,69.64,70.17Z" fill="#fff"/><path d="M65.09,65.62H95.41V96H65.09Z" fill="none"/><g clip-path="url(#aa)"><path d="M123.75,56.25A11.25,11.25,0,0,0,112.5,67.5V93a11.25,11.25,0,0,0,11.25,11.25h20.34a19.51,19.51,0,0,1-.75-4.32,40.92,40.92,0,0,1-.09-4.85c0-.24,0-.4,0-.4s-.36-2.36-.86-4.3a9.51,9.51,0,0,0-.75-2.1,6.11,6.11,0,0,1,.4-2.6,25.77,25.77,0,0,1,1.37,2.58c.21.61.26.78.26.78a18.15,18.15,0,0,0-1.38-4.24c.19-.63.41-1.33.67-2.07.29.52,1,1.71,1.21,2.27a1.21,1.21,0,0,1,.05.14,2,2,0,0,1,.09.26c.14.4.17.52.17.52s0-.26-.14-.66c0-.17-.09-.37-.15-.58a14.78,14.78,0,0,0-1-2.75c1.08-5.59,4.54-12.91,8.26-16.85.33-.34.65-.66,1-1,2.18-1.93,4.39-2.58,6.21-1a6,6,0,0,1,1.86,4.67V67.5a11.25,11.25,0,0,0-11.25-11.25Z" fill="#d9d9d9"/><path d="M123.75,56.25A11.25,11.25,0,0,0,112.5,67.5V93a11.25,11.25,0,0,0,11.25,11.25h20.34a19.51,19.51,0,0,1-.75-4.32,40.92,40.92,0,0,1-.09-4.85c0-.24,0-.4,0-.4s-.36-2.36-.86-4.3a9.51,9.51,0,0,0-.75-2.1,6.11,6.11,0,0,1,.4-2.6,25.77,25.77,0,0,1,1.37,2.58c.21.61.26.78.26.78a18.15,18.15,0,0,0-1.38-4.24c.19-.63.41-1.33.67-2.07.29.52,1,1.71,1.21,2.27a1.21,1.21,0,0,1,.05.14,2,2,0,0,1,.09.26c.14.4.17.52.17.52s0-.26-.14-.66c0-.17-.09-.37-.15-.58a14.78,14.78,0,0,0-1-2.75c1.08-5.59,4.54-12.91,8.26-16.85.33-.34.65-.66,1-1,2.18-1.93,4.39-2.58,6.21-1a6,6,0,0,1,1.86,4.67V67.5a11.25,11.25,0,0,0-11.25-11.25Z" fill="url(#ab)"/><path d="M158.64,63.17c-1.82-1.62-4-1-6.21,1-.32.29-.64.61-1,1-3.72,3.94-7.18,11.26-8.26,16.85a14.78,14.78,0,0,1,1,2.75c.06.21.11.41.15.58.09.4.14.66.14.66s0-.12-.17-.52a2,2,0,0,0-.09-.26,1.21,1.21,0,0,0-.05-.14c-.25-.56-.92-1.75-1.21-2.27-.26.74-.48,1.44-.67,2.07A18.15,18.15,0,0,1,143.64,89s0-.17-.26-.78A25.77,25.77,0,0,0,142,85.68a6.11,6.11,0,0,0-.4,2.6,9.51,9.51,0,0,1,.75,2.1c.5,1.94.86,4.3.86,4.3s0,.16,0,.4a40.92,40.92,0,0,0,.09,4.85,17.41,17.41,0,0,0,.89,4.7l.27-.15a20.9,20.9,0,0,1-.72-7,53.43,53.43,0,0,1,2.93-14.66c3-8,7.27-14.48,11.14-17.56-3.52,3.18-8.29,13.47-9.72,17.28a69.59,69.59,0,0,0-3.42,12.11c1.18-3.6,5-5.14,5-5.14s1.87-2.3,4.05-5.59A40.53,40.53,0,0,0,149.58,85c-1.06.44-1.35.59-1.35.59a36.05,36.05,0,0,1,6.39-3c4-6.38,8.47-15.45,4-19.41" fill="#003b57"/><path d="M117.85,65.44a2,2,0,0,0-1.4.5,1.73,1.73,0,0,0-.54,1.32A2.09,2.09,0,0,0,116,68a1.91,1.91,0,0,0,.42.65,5.51,5.51,0,0,0,1.11.8,5.79,5.79,0,0,1,1.34,1,1.29,1.29,0,0,1,.32.82,1.15,1.15,0,0,1-.39.91,1.52,1.52,0,0,1-1,.34,1.75,1.75,0,0,1-1.2-.47,1.65,1.65,0,0,1-.51-1.26h-.21v1.9h.21q.09-.27.27-.27a1.72,1.72,0,0,1,.39.11,4.09,4.09,0,0,0,1.24.26,2,2,0,0,0,2-2,1.79,1.79,0,0,0-.39-1.14,5.58,5.58,0,0,0-1.51-1.16,4.86,4.86,0,0,1-1.26-.94,1.23,1.23,0,0,1-.3-.81.92.92,0,0,1,.36-.76,1.35,1.35,0,0,1,.92-.29,1.56,1.56,0,0,1,1.08.38,1.59,1.59,0,0,1,.5,1.07h.21V65.51h-.19a.64.64,0,0,1-.07.16s-.06,0-.12,0a1.29,1.29,0,0,1-.36-.09A3.39,3.39,0,0,0,117.85,65.44Zm6.93,0a3.77,3.77,0,0,0-1.91.49A3.73,3.73,0,0,0,121,69.11a3.46,3.46,0,0,0,.88,2.34,3.63,3.63,0,0,0,2.1,1.27,3.61,3.61,0,0,1,.8.74,6.18,6.18,0,0,0,1,1,3.12,3.12,0,0,0,.88.43,3.64,3.64,0,0,0,1,.14,3,3,0,0,0,1.18-.23l-.08-.19a2,2,0,0,1-.64.1,1.7,1.7,0,0,1-.93-.3A5.77,5.77,0,0,1,126,73.23a5.24,5.24,0,0,0-.45-.51,3.68,3.68,0,0,0,2.19-1.28,3.54,3.54,0,0,0,.86-2.33,3.49,3.49,0,0,0-1.12-2.61A3.79,3.79,0,0,0,124.78,65.44Zm4.33,0v.22c.47,0,.73.14.79.41a3.22,3.22,0,0,1,0,.54v5a1.16,1.16,0,0,1-.16.71.94.94,0,0,1-.53.19v.22h4.64l.12-1.12h-.21a.9.9,0,0,1-.42.65,2.69,2.69,0,0,1-1.18.19h-.44c-.51,0-.81-.19-.88-.55a.88.88,0,0,1,0-.24l0-5a1.25,1.25,0,0,1,.15-.74.75.75,0,0,1,.53-.21v-.22Zm-4.25.27a2.4,2.4,0,0,1,1.93.92,4,4,0,0,1,.74,2.55,3.74,3.74,0,0,1-.75,2.44,2.46,2.46,0,0,1-2,.92,2.36,2.36,0,0,1-1.94-1,3.89,3.89,0,0,1-.74-2.46,3.85,3.85,0,0,1,.75-2.49A2.45,2.45,0,0,1,124.86,65.71Zm10.68,1.06a.32.32,0,0,0-.33.4.46.46,0,0,0,.18.28.51.51,0,0,0,.32.12.29.29,0,0,0,.25-.12.34.34,0,0,0,.06-.28.53.53,0,0,0-.18-.28A.44.44,0,0,0,135.54,66.77Zm3.06.76a1.38,1.38,0,0,1-1.25,1.19v.21h.75l0,2.48a4.1,4.1,0,0,0,0,.85.61.61,0,0,0,.68.51,2.49,2.49,0,0,0,1.73-1l-.19-.15a1.8,1.8,0,0,1-1.15.65.37.37,0,0,1-.39-.35,1,1,0,0,1,0-.19V68.93H140V68.6h-1.12V67.53Zm4.42.94a1.82,1.82,0,0,0-1.57.91,2.58,2.58,0,0,0-.36,2,1.71,1.71,0,0,0,.56,1,1.59,1.59,0,0,0,1.07.35,2.17,2.17,0,0,0,1.19-.3,2.63,2.63,0,0,0,.65-1l-.16-.16a1.76,1.76,0,0,1-1.45.87,1.18,1.18,0,0,1-1.22-1.08,2.68,2.68,0,0,1,0-.3,3.77,3.77,0,0,0,1.8-.66c.41-.32.82-.65.74-1a.83.83,0,0,0-.33-.5A1.86,1.86,0,0,0,143,68.47Zm-7,0-1.37.31v.25l.47-.06a.36.36,0,0,1,.41.31,1.7,1.7,0,0,1,0,.28l0,2.23c0,.3,0,.48-.11.53a1,1,0,0,1-.55.09v.21h2.19v-.21a1.61,1.61,0,0,1-.58-.07.37.37,0,0,1-.18-.26,3.88,3.88,0,0,1,0-.47V68.49Zm6.64.41a.64.64,0,0,1,.39.15.58.58,0,0,1,.23.34c.12.59-.41,1-1.6,1.22a2.09,2.09,0,0,1,.23-1.17A.86.86,0,0,1,142.67,68.9Z" fill="#003b57"/></g><rect x="168.75" y="56.25" width="48" height="48" rx="11.25" fill="#242938"/><g mask="url(#ac)"><path d="M202.88,69.88a.86.86,0,0,0-.58-.68.85.85,0,0,0-.87.21L197,73.86l-3.51-6.63a.83.83,0,0,0-1.49,0l-1.9,3.63L185.28,62a.86.86,0,0,0-1.6.28l-4.62,29.53,12.38,6.92a2.58,2.58,0,0,0,2.5,0l12.49-6.92Z" fill="url(#ad)"/><path d="M179.06,91.76l4.64-29.53a.86.86,0,0,1,1.61-.28l4.79,8.91,1.9-3.63a.86.86,0,0,1,1.52,0l12.91,24.53Z" fill="#ffa000"/><rect x="177.35" y="68.96" width="18.6" height="23.65" fill="none"/><path d="M195.06,80.25l-5-9.39-11,20.9Z" fill="#f57c00"/><rect x="178.21" y="67.26" width="29.93" height="32.81" fill="none"/><path d="M206.43,91.76l-3.55-21.88a.86.86,0,0,0-.58-.68.85.85,0,0,0-.87.21L179.06,91.76l12.38,6.92a2.58,2.58,0,0,0,2.5,0Z" fill="#ffca28"/><path d="M202.88,69.88a.86.86,0,0,0-.58-.68.85.85,0,0,0-.87.21L197,73.86l-3.5-6.63a.86.86,0,0,0-.75-.46.84.84,0,0,0-.75.46l-1.9,3.63L185.28,62a.86.86,0,0,0-1.6.28l-4.62,29.53h0l0,0,.13.06L197,74.07l4.45-4.43a.87.87,0,0,1,.87-.2.83.83,0,0,1,.58.67l3.51,21.67,0,0ZM179.11,91.71l4.59-29.27a.86.86,0,0,1,1.61-.28l4.79,8.91,1.9-3.62a.86.86,0,0,1,1.52,0l3.42,6.47Z" fill="#fff" fill-opacity="0.2"/><path d="M193.94,98.47a2.64,2.64,0,0,1-2.5,0l-12.36-6.91,0,.2,12.38,6.92a2.58,2.58,0,0,0,2.5,0l12.49-6.92,0-.2Z" fill="#a52714" opacity="0.2" style="isolation:isolate"/><path d="M202.88,69.88a.86.86,0,0,0-.58-.68.85.85,0,0,0-.87.21L197,73.86l-3.51-6.63a.83.83,0,0,0-1.49,0l-1.9,3.63L185.28,62a.86.86,0,0,0-1.6.28l-4.62,29.53,12.38,6.92a2.58,2.58,0,0,0,2.5,0l12.49-6.92Z" fill="url(#ad)"/></g><rect x="225" y="56.25" width="48" height="48" rx="11.25" fill="#242938"/><path d="M255.19,73.57l3.26-3.26.22-1.37a14.69,14.69,0,0,0-20.74,1.28,15,15,0,0,0-3.18,6l1.17-.16,6.52-1.08.5-.51a8.16,8.16,0,0,1,11.15-.9Z" fill="#ea4335"/><path d="M263.09,76.08a14.69,14.69,0,0,0-4.42-7.14l-4.58,4.58a8.14,8.14,0,0,1,3,6.45v.81a4.05,4.05,0,1,1,0,8.1h-8.16l-.8.87v4.88l.8.77h8.16a10.56,10.56,0,0,0,6-19.32Z" fill="#4285f4"/><path d="M240.78,95.4h8.14V88.88h-8.14a4,4,0,0,1-1.67-.37l-1.16.36-3.28,3.25-.29,1.11A10.61,10.61,0,0,0,240.78,95.4Z" fill="#34a853"/><path d="M240.78,74.25a10.59,10.59,0,0,0-6.4,19l4.73-4.72a4.07,4.07,0,1,1,5.39-5.39l4.72-4.72A10.57,10.57,0,0,0,240.78,74.25Z" fill="#fbbc05"/><rect x="281.25" y="56.25" width="48" height="48" rx="11.25" fill="#242938"/><path d="M297.37,93.74l4.6,2.55h6.95l6.51-4.89,2.91-7.66-6.73-8.1-1.9-4.55-9.32.33.12,2.55-1.8,3.33-2.8,5.44-.56,4.56Z" fill="#eceff1"/><path d="M316.32,77.75c-1.79-2.56-3.25-4.11-4-7.33s.22-2.33-.45-5.11a8.8,8.8,0,0,0-1.46-3.22,4.28,4.28,0,0,0-1.91-1.33,6.45,6.45,0,0,0-6.28.11c-3,1.56-2.69,4.89-2.13,11.66a3.3,3.3,0,0,1-.34,1.44,11.46,11.46,0,0,1-1.91,2.67,22.32,22.32,0,0,0-2.13,3.44c-1.34,2.55-2.58,5.77-2.24,7,.56-.11,7.63,10.55,7.63,10.77a35.92,35.92,0,0,1,4-.11,18.25,18.25,0,0,1,5.61.23c0-.34-.12-.67-.12-1a13.8,13.8,0,0,1,.23-2c.11-.56.22-1.11.33-1.78a11.23,11.23,0,0,1-5,2.44,6.62,6.62,0,0,1-5.84-1.88.69.69,0,0,0,.45-.11c.34-.12.67-.23.79-.45a1.31,1.31,0,0,0-.12-1.44,34.31,34.31,0,0,0-2.69-2.22c-.78-.67-1.23-1-1.68-1.45l-.9-.88c-.22-.23-.34-.45-.45-.56a4.15,4.15,0,0,1-.22-2.11,9,9,0,0,1,1.12-3.33c.22-.44.79-1.33.79-1.33s-1.91,4.66-.9,6.1a14.71,14.71,0,0,1,.56-2.88,10.84,10.84,0,0,1,1.57-3.22c.67-.78,2.36-3.67,2.47-5.44,0-.78.11-1.56.11-2.11-.45-.45,7.4-1.56,7.85-.34.11.45,1.69,4.45,2.58,6.56a24,24,0,0,1,1.35,3,17.93,17.93,0,0,1,.56,4.56,7.45,7.45,0,0,1-.11,1.44c.22,0,4.6-4.66-.56-8.55,0,0,3.14,1.44,3.25,4.33A8.53,8.53,0,0,1,315,87.85c.11,0,2.35,1,2.47,1a5.59,5.59,0,0,0,1.34-.33,8.33,8.33,0,0,0,.45-1.56c.79-2.55-1.12-6.66-2.92-9.21Z" fill="#263238"/><path d="M302.08,70.42c.8,0,1.46-1,1.46-2.22S302.88,66,302.08,66s-1.46,1-1.46,2.22S301.27,70.42,302.08,70.42Z" fill="#eceff1"/><path d="M307.13,70.64c1.05,0,1.9-1.14,1.9-2.55s-.85-2.56-1.9-2.56-1.91,1.15-1.91,2.56S306.07,70.64,307.13,70.64Z" fill="#eceff1"/><path d="M302.89,68.35c-.09-.73-.52-1.28-.95-1.22s-.7.69-.61,1.42.52,1.27.95,1.22S303,69.08,302.89,68.35Z" fill="#212121"/><path d="M307,70a1.49,1.49,0,1,0-1.12-1.45A1.32,1.32,0,0,0,307,70Z" fill="#212121"/><path d="M321.93,93A4.32,4.32,0,0,1,320,91.4c-.34-.55-.23-2.1-.79-2.77a.77.77,0,0,0-.9-.22c-1,.22-3.36,1.77-4.93,0a1.53,1.53,0,0,0-1.12-.56,1,1,0,0,0-1,.67,3.73,3.73,0,0,0-.23,1.89,20.72,20.72,0,0,1-.11,2.66c-.22,1.89-.56,3-.56,4.11a2.44,2.44,0,0,0,2.92,2.88,3.66,3.66,0,0,0,2.8-1.22A22.18,22.18,0,0,1,318.68,97c1.23-.78,3.14-1.78,3.48-2.11s.56-.34.56-1a1,1,0,0,0-.79-.89Z" fill="#ffc107"/><path d="M299.38,93.29c-1.12-1.77-1.23-2.11-2-3.22s-2.14-3.22-3-3.22a1.93,1.93,0,0,0-1.46.78,12.89,12.89,0,0,1-1.68,2c-.68.55-2.58.44-3,1.11s.45,1.66.45,3.33c0,.67-.57,1.11-.68,1.55a1.87,1.87,0,0,0,0,1.34c.45.66,1,.88,4.83,1.66,2,.45,3.92,1.56,5.16,1.67s3.36,0,3.36-3C301.4,95.51,300.39,95.07,299.38,93.29Z" fill="#ffc107"/><path d="M301.52,73.2c-.68-.45-1.24-.89-1.24-1.56s.45-.89,1.12-1.44A4.55,4.55,0,0,1,304,69a9.17,9.17,0,0,1,3.26,1c1,.22,2,.44,1.9,1.22-.11,1.11-.22,1.33-1.34,1.88-.79.23-2.25,1.45-3.25,1.45a7.64,7.64,0,0,1-1.58-.11,6.17,6.17,0,0,1-1.45-1.22Z" fill="#ffc107"/><path d="M301.29,72.31a2.48,2.48,0,0,0,.9.55,5,5,0,0,0,.56.22h1a4.67,4.67,0,0,0,2.13-.66c.79-.33.9-.56,1.46-.78s1.12-.66.9-.78-.45,0-1.24.45a17.38,17.38,0,0,1-1.9,1,4.39,4.39,0,0,1-1.13.33h-1a2.64,2.64,0,0,1-.89-.22c-.23-.11-.34-.22-.45-.22s-.67-.56-.9-.67c0,0-.22,0-.11.11Z" fill="#634703"/><path d="M304.66,69.86c.11.23.33.23.45.34a.34.34,0,0,0,.22.11.21.21,0,0,0-.11-.33c0-.23-.56-.23-.56-.12Z" fill="#634703"/><path d="M302.86,70.09c0,.11.23.22.23.11s.22-.22.33-.22.12-.23-.22-.23-.23.23-.34.34Z" fill="#634703"/><path d="M313.74,89.74v.33a1.33,1.33,0,0,0,1.24.56,2.32,2.32,0,0,0,1.68-.89c0-.11.11-.22.23-.33a5.9,5.9,0,0,1,.44-.67.38.38,0,0,1-.11-.22,1.39,1.39,0,0,0-.9-.56,4.88,4.88,0,0,0-1.12-.22,2.14,2.14,0,0,0-1.9.56.11.11,0,0,1,.11.11,1,1,0,0,1,.33.77c.12.23,0,.34,0,.56Z" fill="#455a64"/><rect x="337.5" y="56.25" width="48" height="48" rx="11.25" fill="#242938"/><path d="M361.36,61.69c-9.52,0-8.92,4.13-8.92,4.13v4.27h9.08v1.29H348.84s-6.09-.69-6.09,8.91,5.32,9.27,5.32,9.27h3.17V85.1s-.17-5.32,5.23-5.32h9s5.06.08,5.06-4.89V66.66S371.31,61.69,361.36,61.69Zm-5,2.87a1.64,1.64,0,1,1-1.64,1.64A1.63,1.63,0,0,1,356.36,64.56Z" fill="url(#af)"/><path d="M361.64,99c9.51,0,8.92-4.13,8.92-4.13V90.59h-9.08V89.3h12.69s6.09.69,6.09-8.91-5.32-9.27-5.32-9.27h-3.17v4.46s.17,5.32-5.23,5.32h-9s-5.06-.08-5.06,4.89V94S351.69,99,361.64,99Zm5-2.87a1.64,1.64,0,1,1,1.64-1.64A1.63,1.63,0,0,1,366.64,96.12Z" fill="url(#ag)"/><rect x="393.75" y="56.25" width="48" height="48" rx="11.25" fill="#953cad"/><path d="M430.39,75.13v2.52h2.53V75.13h1.26v2.52h2.53v1.26h-2.53v2.53h2.53V82.7h-2.53v2.53h-1.26V82.7h-2.53v2.53h-1.26V82.7H426.6V81.44h2.53V78.91H426.6V77.65h2.53V75.13Zm2.53,3.78h-2.53v2.53h2.53Z" fill="#fff"/><path d="M416.63,62.44a17.81,17.81,0,0,1,15.42,8.9l0-.06-7.75,4.47a8.87,8.87,0,0,0-7.54-4.37h-.1a8.87,8.87,0,0,0-8.87,8.87,8.86,8.86,0,0,0,16.59,4.35l0,.06,7.74,4.49a17.81,17.81,0,0,1-15.24,8.91h-.19a17.81,17.81,0,1,1,0-35.62Z" fill="#fff"/><rect x="450" y="56.25" width="48" height="48" rx="11.25" fill="#242938"/><path d="M490.51,87.72V70.26l-15.13-8.72v6.71l5.94,3.41a.33.33,0,0,1,0,.58l-7.06,4.07a.65.65,0,0,1-.66,0l-7.06-4.11a.33.33,0,0,1,0-.58l5.94-3.41V61.5l-15.13,8.73V87.72l5.82-3.34V77.52a.33.33,0,0,1,.5-.28l7.06,4.08a.72.72,0,0,1,.35.58V90a.32.32,0,0,1-.5.27l-5.94-3.41-5.82,3.34L474,99l15.12-8.72-5.81-3.34-5.94,3.41a.34.34,0,0,1-.5-.27V81.9a.62.62,0,0,1,.35-.58l7.06-4.08a.35.35,0,0,1,.5.28v6.86Z" fill="#ccc"/><path d="M473.91,99,489,90.27l-5.81-3.33-5.94,3.41a.34.34,0,0,1-.5-.27V81.94a.63.63,0,0,1,.35-.58l7.06-4.08a.35.35,0,0,1,.5.27v6.87l5.82,3.33V70.26l-16.6,9.58Z" fill="#a6a6a6"/><path d="M475.35,61.5v6.71l5.93,3.41a.33.33,0,0,1,0,.58l-7.06,4.08a.7.7,0,0,1-.66,0l-7-4.08a.33.33,0,0,1,0-.58l5.94-3.41V61.5l-15.13,8.73L474,79.8l16.6-9.57Z" fill="#fff"/><path d="M470.5,90.31l-5.94-3.41-5.81,3.34L473.87,99V79.8l-16.56-9.54V87.75l5.82-3.33V77.55a.33.33,0,0,1,.5-.27l7.06,4.08a.69.69,0,0,1,.35.58v8.14A.39.39,0,0,1,470.5,90.31Z" fill="#ccc"/><rect x="506.25" y="56.25" width="48" height="48" rx="11.25" fill="#242938"/><path d="M512.57,75s-.89-.64.18-1.5l2.48-2.21a1.05,1.05,0,0,1,1.46-.1l22.9,17.34v8.31s0,1.31-1.68,1.17Z" fill="#2489ca"/><path d="M518.47,80.4l-5.9,5.37s-.6.45,0,1.25l2.74,2.5s.65.7,1.62-.1l6.25-4.75Z" fill="#1070b3"/><path d="M528.84,80.44l10.83-8.26-.08-8.27s-.46-1.81-2-.87L523.18,76.15Z" fill="#0877b9"/><path d="M537.91,98.06a1.49,1.49,0,0,0,1.39.43l8.44-4.16a1.76,1.76,0,0,0,.92-1.65V67.86a1.65,1.65,0,0,0-1.11-1.47l-7.32-3.53a2,2,0,0,0-2.64.18s1.35-1,2,.87V96.73a1.44,1.44,0,0,1-.14.65c-.19.39-.61.75-1.61.6Z" fill="#3c99d4"/><rect x="562.5" y="56.25" width="48" height="48" rx="11.25" fill="#242938"/><path d="M577.23,90.75l-9.05-7.18,4.5-8.36,12.91,5Z" fill="url(#ah)"/><path d="M605.25,71.52l-.7,21.69L590.14,99l-8.68-5.57,12.7-13.18-5.57-12.16,5-6Z" fill="url(#ai)"/><path d="M605.25,71.52,593.84,85l-5.25-16.93,5-6Z" fill="url(#aj)"/><path d="M585.8,92.63l-15,5.46,2.41-8.46,3.16-10.4-8.57-2.89,5.41-14.84L585,63l11.57,13.23Z" fill="url(#ak)"/><path d="M598.23,68.73H575.09V91.88h23.14Z"/><path d="M585.91,87.54h-8.68V89h8.68Z" fill="#fff"/><path d="M583.5,73.5V71.73h-4.82V73.5h1.39v6h-1.39v1.77h4.82V79.55h-1.34v-6Z" fill="#fff"/><path d="M588.11,81.48a3.87,3.87,0,0,1-1.88-.43A4.56,4.56,0,0,1,585,80l1.34-1.5a3.25,3.25,0,0,0,.8.69,1.82,1.82,0,0,0,.91.27,1.33,1.33,0,0,0,1-.37,1.94,1.94,0,0,0,.32-1.24V71.73h2.14V78a4.25,4.25,0,0,1-.21,1.5,2.84,2.84,0,0,1-.7,1.07,2.31,2.31,0,0,1-1.07.64A3.62,3.62,0,0,1,588.11,81.48Z" fill="#fff"/><rect x="618.75" y="56.25" width="48" height="48" rx="11.25" fill="#242938"/><path d="M638.82,65.4h-8.67A3.24,3.24,0,0,0,627,68.7a3.17,3.17,0,0,0,3,3.3h8.92Z" fill="#073042"/><path d="M658.47,94.74H630.15A3.21,3.21,0,0,1,627,91.45V68.67A3.28,3.28,0,0,0,630.15,72h23.72s4.63-.41,4.63,3.21V94.74Z" fill="#4285f4"/><path d="M645.26,83.08a3,3,0,0,0,.56-4.13,2.89,2.89,0,0,0-2.19-1.18h.09a1.4,1.4,0,0,1,.5,0V75.94a.56.56,0,0,0-.28-.51.55.55,0,0,0-.77.22.37.37,0,0,0-.06.32v1.86a3,3,0,0,0-2.38,3.4v0a3,3,0,0,0,1.14,1.92l-5.21,11.6h3.39l2.41-5.32a1.21,1.21,0,0,1,1.66-.61,1.34,1.34,0,0,1,.59.61l2.5,5.32h3.45Zm-1.75-.51a1.8,1.8,0,0,1-1.76-1.86,1.75,1.75,0,0,1,1.79-1.79,1.72,1.72,0,0,1,1.2.51,1.88,1.88,0,0,1,0,2.6A1.78,1.78,0,0,1,643.51,82.57Z" fill="#3870b2"/><path d="M636.94,67h12.15v2.3H636.94Z" fill="#fff"/><path d="M642.58,78.89a1.83,1.83,0,1,1-1.79,1.82,1.84,1.84,0,0,1,.53-1.28A1.77,1.77,0,0,1,642.58,78.89Zm.68-1.06V75.91a.54.54,0,0,0-.28-.51.55.55,0,0,0-.77.22.39.39,0,0,0-.06.32V77.8a3,3,0,0,0-2.38,3.4v0a3,3,0,0,0,1.15,1.92l-6.58,14.64a1.64,1.64,0,0,0,.13,1.63,1.51,1.51,0,0,0,2.16.42,1.66,1.66,0,0,0,.55-.68l4.38-9.73a1.22,1.22,0,0,1,1.67-.61,1.39,1.39,0,0,1,.59.61l4.47,9.64a1.51,1.51,0,0,0,2.07.73,1.62,1.62,0,0,0,.71-2.14l-6.76-14.58a3.07,3.07,0,0,0,.46-4.19A2.87,2.87,0,0,0,643.26,77.83Z" fill="#073042"/><path d="M647.3,69.06a.82.82,0,0,1-.83-.84,1,1,0,0,1,.24-.64.85.85,0,0,1,1.18,0,.92.92,0,0,1,.24.61A.9.9,0,0,1,647.3,69.06Zm-9.13,0a.83.83,0,0,1-.83-.83.92.92,0,0,1,.24-.61.81.81,0,0,1,1.14-.13h0a.9.9,0,0,1,.06,1.22l-.1.13a.8.8,0,0,1-.58.26Zm9.38-5.15,1.63-2.95a.4.4,0,0,0-.09-.48.32.32,0,0,0-.4.1l-1.7,3a10.06,10.06,0,0,0-8.48,0l-1.67-3a.38.38,0,0,0-.31-.19.32.32,0,0,0-.3.19.32.32,0,0,0,0,.35l1.66,2.95a10.23,10.23,0,0,0-5.06,8.1h19.81a10.1,10.1,0,0,0-5.06-8.1" fill="#3ddc84"/><path d="M655.76,78.34h-1.3a.23.23,0,0,0-.12.2v21.3a.15.15,0,0,0,.15.16h1.36a2.91,2.91,0,0,0,2.84-3V75.37a2.89,2.89,0,0,1-2.84,2.94h-.09Z" fill="#073042"/><rect x="675" y="56.25" width="48" height="48" rx="11.25" fill="#242938"/><g mask="url(#al)"><path d="M687.12,93.22l-6.24-4.69a1.47,1.47,0,0,1-.47-.55,1.71,1.71,0,0,1-.16-.7V73.22a1.71,1.71,0,0,1,.16-.7,1.47,1.47,0,0,1,.47-.55l6.24-4.69a1.49,1.49,0,0,0-.36.57,1.31,1.31,0,0,0-.06.68V92a1.31,1.31,0,0,0,.06.68A1.49,1.49,0,0,0,687.12,93.22Z" fill="#5e438f"/><path d="M717.05,68a1.53,1.53,0,0,0-.86-.26,1.71,1.71,0,0,0-.59.11,1.63,1.63,0,0,0-.49.33l-.11.11-6.64,6.36-5.83,5.59-6.9,6.62L689.25,93l-.11.11a1.56,1.56,0,0,1-.5.33,1.43,1.43,0,0,1-.58.11,1.6,1.6,0,0,1-.94-.31l-6.24-4.69a1.5,1.5,0,0,0,1.1.3,1.55,1.55,0,0,0,1-.53l3.5-4.07,3.44-4,5.69-6.61,10-11.58a1.54,1.54,0,0,1,.53-.41,1.58,1.58,0,0,1,1.52.12Z" fill="url(#am)"/><path d="M717.05,92.49l-9.37,6.25a1.59,1.59,0,0,1-2-.28l-10-11.59-5.69-6.63-3.44-4L683,72.2a1.6,1.6,0,0,0-1-.54,1.55,1.55,0,0,0-1.1.31l6.24-4.69a1.6,1.6,0,0,1,.94-.31,1.43,1.43,0,0,1,.58.11,1.41,1.41,0,0,1,.5.33l.11.11,6.38,6.11,6.9,6.62,5.84,5.59L715,92.2l.11.11a1.63,1.63,0,0,0,.49.33,1.71,1.71,0,0,0,.59.11A1.53,1.53,0,0,0,717.05,92.49Z" fill="url(#an)"/><path d="M717.75,69.31V91.19a1.59,1.59,0,0,1-.18.74,1.64,1.64,0,0,1-.52.56l-9.37,6.25a1.61,1.61,0,0,0,.51-.56,1.47,1.47,0,0,0,.18-.74V63.06a1.6,1.6,0,0,0-.19-.74,1.65,1.65,0,0,0-.52-.56L717.05,68a1.52,1.52,0,0,1,.51.56A1.48,1.48,0,0,1,717.75,69.31Z" fill="url(#ao)"/></g><g clip-path="url(#ap)"><path d="M768,56.25H742.5A11.25,11.25,0,0,0,731.25,67.5V93a11.25,11.25,0,0,0,11.25,11.25H768A11.25,11.25,0,0,0,779.25,93V67.5A11.25,11.25,0,0,0,768,56.25Z" fill="#242938"/><g clip-path="url(#aq)"><path d="M740.71,68.79l-1.93,21.29L750,96.53l2.34-2.7,16.37-11.62,2.6-5.3L765,71.68l-12.36-7.93Z" fill="url(#ar)"/><path d="M745,80.64l-4.82,7.13,12,6.1L764,70.11l-.8-6.33L756,70.11Z" fill="url(#as)"/><path d="M771.27,77,765,71.78V82.89l3.69-.68Z" fill="#09c4ef"/><path d="M761.29,96.53l-13.07-3.79.48-2.47,16.67-11.75,2.11-.8,4,15.47Z" fill="url(#at)"/><path d="M765.27,70H745V90.33h20.29Z"/><path d="M750.66,72.74h-3.79v8.38h1.8v-2.5h1.93l.41-.07.49-.13.48-.19.32-.19.32-.26.32-.35.32-.52.16-.48.07-.61,0-.61-.12-.54-.2-.49-.22-.35-.29-.29-.29-.22-.29-.19-.29-.13-.22-.1-.29-.06-.32-.07Z" fill="#fff" stroke="#000"/><path d="M750.34,74.38H748.7V77h1.7l.33-.1.32-.13.25-.22.2-.32.09-.33v-.41l-.06-.23L751.4,75l-.19-.23-.23-.16-.29-.13Z" stroke="#000"/><path d="M754.48,86.55H746.9v1.22h7.58Z" fill="#fff"/><path d="M763.09,76.94h0A4.25,4.25,0,0,1,762,79.68a4.37,4.37,0,0,1-3.25,1.5,4.23,4.23,0,0,1-4.43-4.2,4.19,4.19,0,0,1,4.5-4.4,4.37,4.37,0,0,1,3.15,1.34A4,4,0,0,1,763.09,76.94Z" fill="#fff" stroke="#000"/><path d="M761.32,76.85a2.58,2.58,0,0,1-2.79,2.66,2.46,2.46,0,0,1-2.38-2.66,2.43,2.43,0,0,1,2.47-2.54A2.54,2.54,0,0,1,761.32,76.85Z"/><path d="M760.74,75.28,762,73.9l1.48,1.63V78L762,79.67l-1.19-1.15Z" stroke="#000"/></g></g><rect x="787.5" y="56.25" width="48" height="48" rx="11.25" fill="#00979c"/><path d="M791.06,81.85V78.77c.07,0,.07-.1.07-.16a9.69,9.69,0,0,1,7.81-7.73c.35-.1.74-.06,1.09-.19h2.07c0,.06.13,0,.19,0A10.82,10.82,0,0,1,807.88,73a16.29,16.29,0,0,1,3.51,3.85c.13.19.2.19.33,0a19.53,19.53,0,0,1,1.9-2.37,11.18,11.18,0,0,1,6.29-3.56c.36-.1.78-.06,1.13-.19h2c0,.06.1,0,.16,0a10.38,10.38,0,0,1,1.78.35,9.64,9.64,0,0,1,7.13,9.65,9.22,9.22,0,0,1-5.42,8.15A10.49,10.49,0,0,1,821.36,90a9.68,9.68,0,0,1-6.42-2.47,18.42,18.42,0,0,1-3.22-3.88c-.13-.19-.2-.16-.33,0a27.84,27.84,0,0,1-1.9,2.57A10.65,10.65,0,0,1,805,89.38a11.24,11.24,0,0,1-6.74.19,9.74,9.74,0,0,1-6.72-6.12C791.32,82.94,791.22,82.36,791.06,81.85Zm10.26,4.71a6.49,6.49,0,0,0,4.78-1.8,21.56,21.56,0,0,0,3.39-4.45.27.27,0,0,0,0-.26,18.72,18.72,0,0,0-2.88-3.72,7.39,7.39,0,0,0-7.77-1.89,6,6,0,0,0-4.33,5.07A5.8,5.8,0,0,0,797,85.28,6.94,6.94,0,0,0,801.32,86.56Zm20.46,0a7.77,7.77,0,0,0,2.1-.22,6.15,6.15,0,0,0,4.71-5,5.72,5.72,0,0,0-2.71-6.16,7.38,7.38,0,0,0-8.39.32,16.5,16.5,0,0,0-3.84,4.55c-.06.1,0,.16,0,.26a24.21,24.21,0,0,0,2.87,3.94A6.56,6.56,0,0,0,821.78,86.56Z" fill="#fff" fill-rule="evenodd"/><path d="M801.29,79.28c1,0,2.1,0,3.13,0,.26,0,.29.06.29.32a4.22,4.22,0,0,0,0,.87c0,.25,0,.32-.32.32h-4.13c-.71,0-1.42,0-2.13,0-.23,0-.29-.07-.29-.32a4.51,4.51,0,0,0,0-.9c0-.23.06-.29.29-.29C799.16,79.31,800.23,79.28,801.29,79.28Zm20.33-2a6.08,6.08,0,0,0,.74,0c.17,0,.23.06.23.22,0,.45,0,.9,0,1.35,0,.22.06.29.29.29.42,0,.87,0,1.32,0,.2,0,.26,0,.26.25v1.48c0,.16-.06.22-.23.22-.45,0-.9,0-1.38,0-.2,0-.26.06-.26.26,0,.45,0,.89,0,1.34,0,.2-.06.29-.26.29a11.69,11.69,0,0,0-1.45,0c-.19,0-.26-.06-.26-.25,0-.49,0-.93,0-1.42,0-.16-.06-.22-.22-.22-.45,0-.91,0-1.36,0-.26,0-.29-.09-.29-.29,0-.45,0-.89,0-1.34,0-.26.1-.32.32-.32.46,0,.88,0,1.33,0,.16,0,.22-.07.22-.23,0-.44,0-.93,0-1.37,0-.2.07-.26.26-.26A6.09,6.09,0,0,0,821.62,77.23Z" fill="#fff" fill-rule="evenodd"/></svg>