<svg version="1.2" xmlns="http://www.w3.org/2000/svg" viewBox="0 0 1000 100" width="1000" height="100">
	<style>
		.s0 { fill: none;stroke: #30363d;stroke-miterlimit:10 } 
		.s1 { fill: #161b22;stroke: #30363d;stroke-miterlimit:10;stroke-width: 2 } 
		.s2 { fill: #161b22;stroke: #30363d;stroke-miterlimit:10 } 
		.s3 { fill: #c9d1d9 } 
	</style>
	<g id="Layer 1">
		<path id="Shape 2" fill-rule="evenodd" class="s0" d="m14 0h972c7.73 0 14 6.27 14 14v72c0 7.73-6.27 14-14 14h-972c-7.73 0-14-6.27-14-14v-72c0-7.73 6.27-14 14-14z"/>
		<path id="line" fill-rule="evenodd" class="s1" d="m253.28 50l466.94-0.07z"/>
		<g id="Layer 1">
			<g id="Card3">
				<path id="Shape 1" fill-rule="evenodd" class="s2" d="m615.81 26.38l314.2-0.38c7.18 0 13 3.62 13 8.1v30.4c0 4.47-5.83 8.11-13.01 8.12l-314.2 0.38c-7.18 0.01-13-3.61-13-8.09l0.01-30.4c0-4.48 5.82-8.12 13-8.13z"/>
				<path id="Build it with production level s" class="s3" d="m639.5 55h-4.4v-10.9h4.2q1.2 0 1.9 0.4 0.8 0.3 1.2 1 0.4 0.6 0.4 1.4 0 0.7-0.3 1.2-0.2 0.4-0.6 0.7-0.5 0.3-1 0.4v0.2q0.6 0 1.1 0.3 0.5 0.3 0.9 0.9 0.3 0.6 0.3 1.4 0 0.9-0.4 1.5-0.4 0.7-1.2 1.1-0.8 0.4-2.1 0.4zm-2.4-4.9v3.3h2.1q1.1 0 1.6-0.5 0.4-0.4 0.4-1 0-0.5-0.2-0.9-0.2-0.4-0.7-0.6-0.4-0.3-1-0.3zm0-4.4v3h1.9q0.5 0 1-0.1 0.4-0.2 0.6-0.6 0.2-0.3 0.2-0.8 0-0.7-0.4-1.1-0.4-0.4-1.3-0.4zm10.7 9.4q-0.8 0-1.4-0.4-0.7-0.3-1-1-0.4-0.7-0.4-1.7v-5.2h1.9v4.9q0 0.8 0.5 1.3 0.4 0.5 1.1 0.5 0.6 0 0.9-0.2 0.4-0.3 0.7-0.7 0.2-0.4 0.2-1v-4.8h1.9v8.2h-1.8v-2h0.1q-0.3 1-1 1.6-0.7 0.5-1.7 0.5zm8.1-0.1h-1.9v-8.2h1.9zm-0.9-9.3q-0.5 0-0.8-0.3-0.3-0.3-0.3-0.8 0-0.4 0.3-0.7 0.3-0.3 0.8-0.3 0.4 0 0.8 0.3 0.3 0.3 0.3 0.7 0 0.5-0.3 0.8-0.4 0.3-0.8 0.3zm3-1.6h1.9v10.9h-1.9zm7.1 11.1q-1 0-1.8-0.5-0.7-0.5-1.2-1.5-0.4-0.9-0.4-2.3 0-1.3 0.4-2.3 0.5-0.9 1.2-1.4 0.8-0.5 1.7-0.5 0.8 0 1.2 0.3 0.5 0.2 0.8 0.6 0.3 0.3 0.4 0.6h0.1v-4.1h1.9v10.9h-1.9v-1.3h-0.1q-0.2 0.3-0.4 0.7-0.3 0.3-0.8 0.5-0.4 0.3-1.1 0.3zm0.5-1.6q0.6 0 1-0.3 0.5-0.4 0.7-1 0.2-0.6 0.2-1.4 0-0.8-0.2-1.3-0.2-0.6-0.7-1-0.4-0.3-1-0.3-0.7 0-1.1 0.3-0.4 0.4-0.7 1-0.2 0.6-0.2 1.3 0 0.8 0.2 1.4 0.3 0.6 0.7 1 0.4 0.3 1.1 0.3zm11.3 1.4h-1.9v-8.2h1.9zm-0.9-9.3q-0.5 0-0.8-0.3-0.3-0.3-0.3-0.8 0-0.4 0.3-0.7 0.3-0.3 0.8-0.3 0.4 0 0.8 0.3 0.3 0.3 0.3 0.7 0 0.5-0.3 0.8-0.4 0.3-0.8 0.3zm2.2 1.1h4.6v1.5h-4.6zm1.1 6.1v-8h1.9v7.8q0 0.5 0.2 0.7 0.2 0.2 0.7 0.2 0.1 0 0.3 0 0.2-0.1 0.3-0.1l0.3 1.5q-0.3 0.1-0.6 0.1-0.3 0-0.6 0-1.2 0-1.8-0.5-0.7-0.6-0.7-1.7zm12.4 2.1h-1.9l-2.5-8.2h2l0.9 3.2q0.1 0.8 0.4 1.8 0.2 0.9 0.4 2.1h-0.3q0.2-1.1 0.5-2.1 0.2-0.9 0.4-1.8l0.8-3.2h1.8l0.8 3.2q0.2 0.8 0.5 1.8 0.2 0.9 0.4 2.1h-0.3q0.2-1.1 0.5-2.1 0.2-0.9 0.4-1.8l0.8-3.2h2l-2.5 8.2h-1.9l-0.9-3.3q-0.2-0.5-0.3-1.1-0.2-0.6-0.3-1.2-0.1-0.6-0.3-1.1h0.4q-0.1 0.5-0.3 1.1-0.1 0.6-0.3 1.2-0.1 0.6-0.2 1.1zm11.2 0h-1.9v-8.2h1.9zm-1-9.3q-0.4 0-0.7-0.4-0.4-0.3-0.4-0.7 0-0.4 0.4-0.7 0.3-0.3 0.7-0.3 0.5 0 0.8 0.3 0.4 0.3 0.4 0.7 0 0.4-0.4 0.7-0.3 0.4-0.8 0.4zm2.2 1.1h4.7v1.5h-4.7zm1.2 6v-7.9h1.9v7.8q0 0.4 0.2 0.6 0.2 0.2 0.6 0.2 0.1 0 0.4 0 0.2 0 0.3 0l0.3 1.4q-0.3 0.1-0.6 0.2-0.4 0-0.7 0-1.1 0-1.8-0.6-0.6-0.6-0.6-1.7zm6.6-2.6v4.8h-1.9v-10.9h1.9v4.7h-0.2q0.3-1 1-1.6 0.7-0.5 1.7-0.5 0.8 0 1.4 0.4 0.7 0.3 1 1 0.4 0.7 0.4 1.7v5.2h-2v-4.9q0-0.8-0.4-1.3-0.4-0.5-1.2-0.5-0.5 0-0.9 0.2-0.4 0.3-0.6 0.7-0.2 0.4-0.2 1zm13 7.9h-1.9v-11.3h1.9v1.4h0.1q0.1-0.3 0.4-0.7 0.3-0.3 0.7-0.6 0.5-0.2 1.2-0.2 1 0 1.7 0.5 0.8 0.5 1.2 1.4 0.5 0.9 0.5 2.3 0 1.4-0.4 2.3-0.5 0.9-1.2 1.4-0.8 0.5-1.8 0.5-0.7 0-1.2-0.2-0.4-0.2-0.7-0.6-0.3-0.3-0.4-0.6h-0.1zm1.9-4.5q0.6 0 1.1-0.3 0.4-0.4 0.6-1 0.2-0.6 0.2-1.4 0-0.7-0.2-1.3-0.2-0.6-0.6-0.9-0.5-0.4-1.1-0.4-0.6 0-1.1 0.3-0.4 0.4-0.6 1-0.2 0.5-0.2 1.3 0 0.8 0.2 1.4 0.2 0.6 0.6 1 0.5 0.3 1.1 0.3zm7.1 1.4h-1.9v-8.2h1.8v1.4h0.1q0.2-0.7 0.8-1.1 0.5-0.4 1.2-0.4 0.2 0 0.4 0 0.2 0.1 0.3 0.1v1.7q-0.1 0-0.3 0-0.3-0.1-0.6-0.1-0.5 0-0.9 0.3-0.4 0.2-0.7 0.6-0.2 0.4-0.2 0.9zm7.6 0.2q-1.1 0-2-0.5-0.9-0.6-1.4-1.5-0.5-1-0.5-2.2 0-1.3 0.5-2.3 0.5-0.9 1.4-1.4 0.9-0.6 2-0.6 1.2 0 2.1 0.6 0.9 0.5 1.4 1.4 0.5 1 0.5 2.3 0 1.2-0.5 2.2-0.5 0.9-1.4 1.5-0.9 0.5-2.1 0.5zm0-1.6q0.7 0 1.2-0.3 0.4-0.4 0.6-1 0.2-0.6 0.2-1.3 0-0.8-0.2-1.4-0.2-0.6-0.6-1-0.5-0.3-1.2-0.3-0.6 0-1.1 0.3-0.4 0.4-0.6 1-0.2 0.6-0.2 1.4 0 0.7 0.2 1.3 0.2 0.6 0.6 1 0.5 0.3 1.1 0.3zm8.5 1.6q-1 0-1.7-0.5-0.8-0.5-1.2-1.5-0.5-0.9-0.5-2.3 0-1.3 0.5-2.3 0.4-0.9 1.2-1.4 0.8-0.5 1.7-0.5 0.7 0 1.2 0.3 0.5 0.2 0.7 0.6 0.3 0.3 0.5 0.6v-4.1h1.9v10.9h-1.8v-1.3h-0.1q-0.2 0.3-0.5 0.7-0.3 0.3-0.7 0.5-0.5 0.3-1.2 0.3zm0.5-1.6q0.7 0 1.1-0.3 0.4-0.4 0.6-1 0.3-0.6 0.3-1.4 0-0.8-0.3-1.4-0.2-0.6-0.6-0.9-0.4-0.3-1.1-0.3-0.6 0-1.1 0.3-0.4 0.4-0.6 1-0.2 0.6-0.2 1.3 0 0.8 0.2 1.4 0.2 0.6 0.7 1 0.4 0.3 1 0.3zm8.3 1.5q-0.8 0-1.5-0.3-0.6-0.4-1-1.1-0.3-0.7-0.3-1.7v-5.2h1.9v4.9q0 0.9 0.4 1.3 0.5 0.5 1.2 0.5 0.5 0 0.9-0.2 0.4-0.2 0.6-0.7 0.2-0.4 0.2-1v-4.8h2v8.2h-1.9v-2h0.2q-0.4 1.1-1.1 1.6-0.6 0.5-1.6 0.5zm10.7 0.1q-1.1 0-2-0.5-0.9-0.6-1.4-1.5-0.5-1-0.5-2.2 0-1.3 0.5-2.3 0.5-0.9 1.4-1.4 0.9-0.6 2-0.6 0.7 0 1.3 0.2 0.6 0.2 1.1 0.5 0.4 0.3 0.7 0.8 0.3 0.5 0.5 1.1l-1.8 0.4q-0.1-0.3-0.2-0.6-0.2-0.3-0.4-0.4-0.2-0.2-0.5-0.3-0.3-0.1-0.6-0.1-0.7 0-1.2 0.3-0.4 0.4-0.6 1-0.2 0.6-0.2 1.4 0 0.7 0.2 1.3 0.2 0.6 0.6 1 0.5 0.3 1.2 0.3 0.3 0 0.6-0.1 0.3-0.1 0.5-0.3 0.2-0.2 0.4-0.4 0.1-0.3 0.2-0.6l1.8 0.4q-0.1 0.6-0.4 1.1-0.4 0.4-0.8 0.8-0.5 0.3-1.1 0.5-0.6 0.2-1.3 0.2zm3.6-8.4h4.7v1.5h-4.7zm1.2 6.1v-8h1.9v7.8q0 0.4 0.2 0.7 0.2 0.2 0.6 0.2 0.1 0 0.4-0.1 0.2 0 0.3 0l0.3 1.4q-0.3 0.1-0.6 0.2-0.4 0-0.7 0-1.1 0-1.8-0.6-0.6-0.6-0.6-1.6zm7.6 2.1h-1.9v-8.2h1.9zm-1-9.3q-0.4 0-0.7-0.3-0.4-0.3-0.4-0.8 0-0.4 0.4-0.7 0.3-0.3 0.7-0.3 0.5 0 0.8 0.3 0.4 0.3 0.4 0.7 0 0.5-0.4 0.8-0.3 0.3-0.8 0.3zm6.6 9.5q-1.1 0-2-0.5-0.9-0.6-1.4-1.5-0.5-1-0.5-2.2 0-1.3 0.5-2.3 0.5-0.9 1.4-1.4 0.9-0.6 2-0.6 1.2 0 2.1 0.6 0.9 0.5 1.4 1.4 0.5 1 0.5 2.3 0 1.2-0.5 2.2-0.5 0.9-1.4 1.5-0.9 0.5-2.1 0.5zm0-1.6q0.7 0 1.2-0.3 0.4-0.4 0.6-1 0.2-0.6 0.2-1.3 0-0.8-0.2-1.4-0.2-0.6-0.6-1-0.5-0.3-1.2-0.3-0.6 0-1.1 0.3-0.4 0.4-0.6 1-0.2 0.6-0.2 1.4 0 0.7 0.2 1.3 0.2 0.6 0.6 1 0.5 0.3 1.1 0.3zm7.4-3.4v4.8h-1.9v-8.2h1.8v2.1h-0.1q0.3-1.1 1-1.6 0.7-0.6 1.7-0.6 0.8 0 1.4 0.4 0.7 0.3 1 1 0.4 0.7 0.4 1.7v5.2h-2v-4.9q0-0.8-0.4-1.3-0.4-0.5-1.2-0.5-0.5 0-0.9 0.3-0.4 0.2-0.6 0.6-0.2 0.4-0.2 1zm11.1-6.1h1.9v10.9h-1.9zm7.6 11.1q-1.2 0-2.1-0.5-0.9-0.5-1.4-1.5-0.5-0.9-0.5-2.2 0-1.3 0.5-2.2 0.5-1 1.3-1.5 0.9-0.6 2.1-0.6 0.7 0 1.4 0.3 0.7 0.2 1.2 0.7 0.5 0.5 0.8 1.3 0.3 0.8 0.3 1.9v0.6h-6.7v-1.3h5.8l-0.9 0.4q0-0.7-0.2-1.3-0.2-0.5-0.7-0.8-0.4-0.3-1-0.3-0.6 0-1.1 0.3-0.4 0.3-0.6 0.8-0.3 0.5-0.3 1.1v0.9q0 0.8 0.3 1.3 0.3 0.6 0.7 0.8 0.5 0.3 1.1 0.3 0.5 0 0.8-0.1 0.3-0.1 0.6-0.4 0.2-0.2 0.4-0.6l1.7 0.4q-0.2 0.7-0.7 1.2-0.4 0.4-1.2 0.7-0.7 0.3-1.6 0.3zm8.8-0.2h-2.1l-3-8.2h2l1.5 4.5q0.3 0.8 0.5 1.6 0.1 0.8 0.3 1.6h-0.4q0.2-0.8 0.4-1.6 0.1-0.8 0.4-1.6l1.5-4.5h2zm8.2 0.2q-1.3 0-2.2-0.5-0.9-0.5-1.3-1.5-0.5-0.9-0.5-2.2 0-1.3 0.5-2.2 0.4-1 1.3-1.5 0.9-0.5 2-0.5 0.8 0 1.5 0.2 0.6 0.2 1.2 0.7 0.5 0.5 0.8 1.3 0.3 0.8 0.3 1.9v0.6h-6.7v-1.3h5.7l-0.9 0.4q0-0.7-0.2-1.2-0.2-0.6-0.6-0.9-0.4-0.3-1-0.3-0.7 0-1.1 0.3-0.5 0.3-0.7 0.8-0.2 0.5-0.2 1.1v0.9q0 0.8 0.2 1.3 0.3 0.6 0.8 0.8 0.5 0.3 1.1 0.3 0.4 0 0.7-0.1 0.4-0.1 0.6-0.4 0.3-0.2 0.4-0.5l1.8 0.3q-0.2 0.7-0.7 1.2-0.5 0.5-1.2 0.7-0.7 0.3-1.6 0.3zm5.3-11.1h2v10.9h-2zm10.1 11.1q-0.9 0-1.6-0.2-0.7-0.3-1.2-0.8-0.5-0.6-0.6-1.3l1.8-0.3q0.1 0.6 0.6 0.9 0.4 0.3 1.1 0.3 0.7 0 1.1-0.3 0.4-0.3 0.4-0.7 0-0.4-0.3-0.6-0.2-0.2-0.8-0.4l-1.4-0.3q-1.1-0.2-1.7-0.8-0.6-0.5-0.6-1.4 0-0.8 0.4-1.4 0.4-0.5 1.2-0.8 0.7-0.3 1.7-0.3 0.9 0 1.6 0.2 0.7 0.3 1.1 0.8 0.4 0.4 0.6 1.1l-1.7 0.3q-0.2-0.4-0.5-0.7-0.4-0.3-1.1-0.3-0.6 0-1 0.3-0.4 0.2-0.4 0.6 0 0.4 0.3 0.6 0.3 0.3 0.9 0.4l1.4 0.3q1.1 0.2 1.7 0.8 0.6 0.5 0.6 1.4 0 0.8-0.5 1.4-0.4 0.6-1.2 0.9-0.8 0.3-1.9 0.3zm5.1-8.3h4.6v1.5h-4.6zm1.1 6v-8h2v7.8q0 0.5 0.1 0.7 0.2 0.2 0.7 0.2 0.1 0 0.3 0 0.2-0.1 0.4-0.1l0.3 1.5q-0.4 0.1-0.7 0.1-0.3 0.1-0.6 0.1-1.2 0-1.8-0.6-0.7-0.6-0.7-1.7zm7 2.3q-0.7 0-1.4-0.3-0.6-0.2-1-0.8-0.3-0.5-0.3-1.4 0-0.6 0.3-1.1 0.2-0.5 0.7-0.7 0.4-0.3 1-0.4 0.5-0.2 1.1-0.2 0.7-0.1 1.2-0.2 0.4 0 0.6-0.2 0.2-0.1 0.2-0.4 0-0.4-0.1-0.7-0.2-0.3-0.5-0.4-0.3-0.2-0.8-0.2-0.5 0-0.8 0.2-0.4 0.1-0.6 0.4-0.2 0.2-0.3 0.5l-1.8-0.4q0.3-0.7 0.8-1.2 0.5-0.5 1.2-0.7 0.7-0.2 1.5-0.2 0.6 0 1.2 0.1 0.6 0.1 1 0.5 0.5 0.3 0.8 0.8 0.3 0.6 0.3 1.4v5.4h-1.8v-1.1h-0.1q-0.1 0.4-0.5 0.7-0.3 0.3-0.8 0.4-0.4 0.2-1.1 0.2zm0.5-1.4q0.6 0 1-0.2 0.5-0.3 0.7-0.6 0.2-0.4 0.2-0.9v-1q0 0.1-0.3 0.2-0.2 0-0.5 0.1-0.2 0-0.5 0.1-0.3 0-0.5 0-0.4 0.1-0.7 0.2-0.4 0.2-0.6 0.4-0.2 0.2-0.2 0.6 0 0.4 0.2 0.6 0.2 0.3 0.5 0.4 0.3 0.1 0.7 0.1zm8.2-3.5v4.7h-2v-8.1h1.9v2h-0.2q0.4-1.1 1-1.6 0.7-0.5 1.7-0.5 0.9 0 1.5 0.3 0.6 0.4 1 1.1 0.3 0.7 0.3 1.6v5.2h-1.9v-4.9q0-0.8-0.4-1.3-0.4-0.4-1.2-0.4-0.5 0-0.9 0.2-0.4 0.2-0.6 0.6-0.2 0.5-0.2 1.1zm10.1 4.9q-1 0-1.8-0.5-0.7-0.5-1.2-1.4-0.4-1-0.4-2.3 0-1.4 0.4-2.3 0.5-1 1.3-1.5 0.7-0.4 1.7-0.4 0.7 0 1.2 0.2 0.4 0.2 0.7 0.6 0.3 0.3 0.4 0.6h0.1v-4.1h1.9v10.9h-1.9v-1.2h-0.1q-0.1 0.2-0.4 0.6-0.3 0.3-0.8 0.6-0.4 0.2-1.1 0.2zm0.5-1.6q0.6 0 1-0.3 0.5-0.3 0.7-0.9 0.2-0.6 0.2-1.4 0-0.8-0.2-1.4-0.2-0.6-0.7-0.9-0.4-0.4-1-0.4-0.7 0-1.1 0.4-0.4 0.3-0.6 0.9-0.3 0.6-0.3 1.4 0 0.7 0.3 1.3 0.2 0.6 0.6 1 0.5 0.3 1.1 0.3zm7.7 1.6q-0.7 0-1.4-0.3-0.6-0.2-1-0.8-0.3-0.5-0.3-1.4 0-0.6 0.3-1.1 0.2-0.5 0.7-0.7 0.4-0.3 1-0.4 0.5-0.2 1.1-0.2 0.7-0.1 1.2-0.2 0.4 0 0.6-0.2 0.2-0.1 0.2-0.4 0-0.4-0.1-0.7-0.2-0.3-0.5-0.4-0.3-0.2-0.8-0.2-0.5 0-0.8 0.2-0.4 0.1-0.6 0.4-0.2 0.2-0.3 0.5l-1.8-0.4q0.3-0.7 0.8-1.2 0.5-0.5 1.2-0.7 0.7-0.2 1.5-0.2 0.6 0 1.2 0.1 0.6 0.1 1 0.5 0.5 0.3 0.8 0.8 0.3 0.6 0.3 1.4v5.4h-1.8v-1.1h-0.1q-0.1 0.4-0.5 0.7-0.3 0.3-0.8 0.4-0.4 0.2-1.1 0.2zm0.5-1.4q0.6 0 1-0.2 0.5-0.3 0.7-0.6 0.2-0.4 0.2-0.9v-1q0 0.1-0.3 0.2-0.2 0-0.5 0.1-0.2 0-0.5 0.1-0.3 0-0.5 0-0.4 0.1-0.7 0.2-0.4 0.2-0.6 0.4-0.2 0.2-0.2 0.6 0 0.4 0.2 0.6 0.2 0.3 0.5 0.4 0.3 0.1 0.7 0.1zm8.2 1.2h-2v-8.1h1.9v1.3h0.1q0.2-0.7 0.8-1.1 0.5-0.4 1.2-0.4 0.2 0 0.4 0.1 0.2 0 0.3 0v1.8q-0.1-0.1-0.4-0.1-0.2 0-0.5 0-0.5 0-1 0.2-0.4 0.2-0.6 0.6-0.2 0.4-0.2 0.9zm6.1 0.2q-1 0-1.8-0.5-0.7-0.5-1.2-1.5-0.4-0.9-0.4-2.2 0-1.4 0.4-2.3 0.5-1 1.3-1.5 0.7-0.5 1.7-0.5 0.7 0 1.2 0.3 0.4 0.2 0.7 0.6 0.3 0.3 0.4 0.6h0.1v-4.1h1.9v10.9h-1.9v-1.3h-0.1q-0.1 0.3-0.4 0.7-0.3 0.3-0.8 0.5-0.4 0.3-1.1 0.3zm0.5-1.6q0.6 0 1-0.3 0.5-0.4 0.7-1 0.2-0.6 0.2-1.4 0-0.8-0.2-1.3-0.2-0.6-0.7-1-0.4-0.3-1-0.3-0.7 0-1.1 0.4-0.4 0.3-0.6 0.9-0.3 0.6-0.3 1.3 0 0.8 0.3 1.4 0.2 0.6 0.6 1 0.5 0.3 1.1 0.3zm9.5 1.6q-0.9 0-1.6-0.3-0.7-0.2-1.2-0.8-0.5-0.5-0.6-1.2l1.8-0.4q0.1 0.6 0.6 1 0.4 0.2 1.1 0.2 0.7 0 1.1-0.2 0.4-0.3 0.4-0.7 0-0.4-0.3-0.6-0.2-0.3-0.8-0.4l-1.4-0.3q-1.1-0.2-1.7-0.8-0.6-0.6-0.6-1.5 0-0.7 0.4-1.3 0.4-0.5 1.2-0.9 0.7-0.3 1.7-0.3 0.9 0 1.6 0.3 0.7 0.3 1.1 0.7 0.4 0.5 0.6 1.2l-1.7 0.3q-0.2-0.4-0.5-0.7-0.4-0.3-1.1-0.3-0.6 0-1 0.2-0.4 0.3-0.4 0.7 0 0.4 0.3 0.6 0.3 0.2 0.9 0.4l1.4 0.3q1.1 0.2 1.7 0.8 0.6 0.5 0.6 1.4 0 0.8-0.5 1.3-0.4 0.6-1.2 1-0.8 0.3-1.9 0.3z"/>
			</g>
			<g id="Card2">
				<path id="Shape 1" fill-rule="evenodd" class="s2" d="m313.4 26.28l232.97-0.28c5.32-0.01 9.64 3.62 9.64 8.1l0.01 30.4c0.01 4.47-4.31 8.11-9.63 8.12l-232.97 0.28c-5.32 0-9.64-3.62-9.64-8.1l-0.02-30.4c0-4.48 4.31-8.11 9.64-8.12z"/>
				<path id="Design a practical solution" class="s3" d="m339.8 55h-2.8v-1.7h2.7q1.1 0 1.9-0.4 0.8-0.4 1.2-1.3 0.3-0.8 0.3-2.1 0-1.2-0.4-2.1-0.3-0.8-1.1-1.2-0.7-0.4-1.9-0.4h-2.7v-1.7h2.9q1.6 0 2.8 0.6 1.1 0.7 1.7 1.9 0.7 1.2 0.7 2.9 0 1.7-0.7 3-0.6 1.2-1.8 1.8-1.1 0.7-2.8 0.7zm-3.7-10.9h2v10.9h-2zm14.5 11.1q-1.2 0-2.1-0.5-0.9-0.6-1.4-1.5-0.4-0.9-0.4-2.2 0-1.3 0.4-2.2 0.5-1 1.4-1.5 0.8-0.6 2-0.6 0.8 0 1.4 0.3 0.7 0.2 1.2 0.7 0.6 0.5 0.8 1.3 0.3 0.8 0.3 1.9v0.5h-6.7v-1.2h5.8l-0.9 0.3q0-0.7-0.2-1.2-0.2-0.5-0.6-0.8-0.5-0.3-1.1-0.3-0.6 0-1.1 0.3-0.4 0.3-0.6 0.8-0.3 0.5-0.3 1.1v0.9q0 0.8 0.3 1.3 0.3 0.5 0.7 0.8 0.5 0.3 1.2 0.3 0.4 0 0.7-0.1 0.4-0.2 0.6-0.4 0.2-0.2 0.4-0.6l1.7 0.4q-0.2 0.6-0.7 1.1-0.4 0.5-1.1 0.8-0.8 0.3-1.7 0.3zm7.5 0q-0.9 0-1.7-0.3-0.7-0.3-1.2-0.8-0.4-0.5-0.6-1.2l1.8-0.4q0.2 0.6 0.6 0.9 0.5 0.3 1.1 0.3 0.7 0 1.2-0.3 0.4-0.2 0.4-0.7 0-0.3-0.3-0.5-0.3-0.3-0.8-0.4l-1.4-0.3q-1.2-0.2-1.8-0.8-0.5-0.6-0.5-1.5 0-0.7 0.4-1.3 0.4-0.6 1.1-0.9 0.8-0.3 1.8-0.3 0.9 0 1.6 0.3 0.6 0.2 1.1 0.7 0.4 0.5 0.5 1.1l-1.7 0.4q-0.1-0.5-0.5-0.8-0.3-0.3-1-0.3-0.6 0-1 0.3-0.4 0.3-0.4 0.7 0 0.4 0.2 0.6 0.3 0.2 0.9 0.4l1.4 0.2q1.2 0.3 1.8 0.9 0.5 0.5 0.5 1.4 0 0.7-0.4 1.3-0.5 0.6-1.3 1-0.8 0.3-1.8 0.3zm7.8-0.2h-1.9v-8.2h1.9zm-0.9-9.3q-0.5 0-0.8-0.3-0.3-0.3-0.3-0.8 0-0.4 0.3-0.7 0.3-0.3 0.8-0.3 0.4 0 0.7 0.3 0.4 0.3 0.4 0.7 0 0.5-0.4 0.8-0.3 0.3-0.7 0.3zm6.5 12.6q-0.9 0-1.7-0.3-0.7-0.2-1.2-0.7-0.4-0.4-0.6-0.9l1.6-0.6q0.1 0.2 0.3 0.5 0.3 0.2 0.7 0.4 0.3 0.1 0.9 0.1 0.9 0 1.4-0.4 0.6-0.4 0.6-1.3v-1.5h-0.2q-0.1 0.3-0.4 0.6-0.3 0.3-0.7 0.5-0.5 0.2-1.2 0.2-0.9 0-1.7-0.4-0.7-0.5-1.2-1.4-0.4-0.9-0.4-2.2 0-1.3 0.4-2.3 0.5-0.9 1.2-1.4 0.8-0.5 1.7-0.5 0.8 0 1.2 0.3 0.5 0.2 0.8 0.6 0.3 0.3 0.4 0.6h0.1v-1.4h1.9v8.2q0 1.1-0.5 1.9-0.5 0.7-1.4 1-0.9 0.4-2 0.4zm0.1-4.9q0.6 0 1-0.3 0.4-0.3 0.7-0.9 0.2-0.5 0.2-1.3 0-0.8-0.2-1.4-0.3-0.5-0.7-0.9-0.4-0.3-1-0.3-0.7 0-1.1 0.3-0.5 0.4-0.7 1-0.2 0.5-0.2 1.3 0 0.7 0.2 1.3 0.2 0.6 0.7 0.9 0.4 0.3 1.1 0.3zm7.3-3.2v4.8h-1.9v-8.2h1.8v2.1h-0.1q0.3-1.1 1-1.6 0.7-0.6 1.7-0.6 0.8 0 1.4 0.4 0.7 0.4 1 1 0.4 0.7 0.4 1.7v5.2h-1.9v-4.9q0-0.8-0.5-1.3-0.4-0.4-1.1-0.4-0.5 0-0.9 0.2-0.4 0.2-0.7 0.6-0.2 0.4-0.2 1zm13.4 5q-0.8 0-1.4-0.3-0.6-0.3-1-0.8-0.3-0.6-0.3-1.4 0-0.7 0.2-1.1 0.3-0.5 0.7-0.7 0.5-0.3 1-0.5 0.6-0.1 1.2-0.2 0.7 0 1.1-0.1 0.5-0.1 0.7-0.2 0.2-0.1 0.2-0.4 0-0.4-0.2-0.7-0.1-0.3-0.4-0.4-0.4-0.2-0.8-0.2-0.5 0-0.9 0.2-0.3 0.1-0.5 0.3-0.2 0.3-0.3 0.5l-1.8-0.3q0.2-0.8 0.7-1.2 0.5-0.5 1.2-0.7 0.7-0.3 1.6-0.3 0.5 0 1.1 0.2 0.6 0.1 1.1 0.4 0.5 0.3 0.8 0.9 0.3 0.5 0.3 1.4v5.4h-1.8v-1.1h-0.1q-0.2 0.3-0.5 0.6-0.3 0.3-0.8 0.5-0.5 0.2-1.1 0.2zm0.5-1.4q0.6 0 1-0.2 0.4-0.3 0.7-0.7 0.2-0.4 0.2-0.8v-1q-0.1 0.1-0.3 0.2-0.2 0-0.5 0.1-0.3 0-0.5 0.1-0.3 0-0.5 0-0.4 0.1-0.8 0.2-0.3 0.1-0.5 0.4-0.2 0.2-0.2 0.6 0 0.4 0.2 0.6 0.2 0.2 0.5 0.4 0.3 0.1 0.7 0.1zm11.1 4.3h-1.9v-11.3h1.9v1.4h0.1q0.1-0.3 0.4-0.6 0.3-0.4 0.7-0.6 0.5-0.3 1.2-0.3 1 0 1.7 0.5 0.8 0.5 1.3 1.4 0.4 1 0.4 2.3 0 1.4-0.4 2.3-0.5 1-1.2 1.5-0.8 0.5-1.8 0.5-0.7 0-1.1-0.3-0.5-0.2-0.8-0.5-0.3-0.4-0.4-0.7h-0.1zm1.9-4.5q0.7 0 1.1-0.3 0.4-0.3 0.6-1 0.3-0.6 0.3-1.3 0-0.8-0.3-1.4-0.2-0.6-0.6-0.9-0.4-0.4-1.1-0.4-0.6 0-1.1 0.4-0.4 0.3-0.6 0.9-0.2 0.6-0.2 1.4 0 0.8 0.2 1.4 0.2 0.6 0.7 0.9 0.4 0.3 1 0.3zm8.1 1.5h-1.9v-8.2h1.9v1.3q0.3-0.7 0.8-1 0.6-0.4 1.3-0.4 0.1 0 0.3 0 0.2 0 0.4 0v1.8q-0.2-0.1-0.4-0.1-0.3 0-0.5 0-0.6 0-1 0.2-0.4 0.2-0.7 0.6-0.2 0.4-0.2 1zm5.4 0.1q-0.8 0-1.4-0.3-0.6-0.2-1-0.8-0.3-0.5-0.3-1.4 0-0.6 0.2-1.1 0.3-0.4 0.7-0.7 0.5-0.3 1-0.4 0.6-0.2 1.2-0.2 0.7-0.1 1.1-0.2 0.5 0 0.7-0.2 0.2-0.1 0.2-0.4 0-0.4-0.2-0.7-0.1-0.3-0.4-0.4-0.4-0.2-0.8-0.2-0.5 0-0.9 0.2-0.3 0.1-0.5 0.4-0.2 0.2-0.3 0.5l-1.8-0.4q0.2-0.7 0.7-1.2 0.5-0.5 1.2-0.7 0.7-0.2 1.6-0.2 0.5 0 1.1 0.1 0.6 0.1 1.1 0.5 0.5 0.3 0.8 0.8 0.3 0.6 0.3 1.4v5.5h-1.8v-1.2h-0.1q-0.2 0.4-0.5 0.7-0.3 0.3-0.8 0.4-0.5 0.2-1.1 0.2zm0.5-1.4q0.6 0 1-0.2 0.4-0.3 0.7-0.6 0.2-0.4 0.2-0.9v-1q-0.1 0.1-0.3 0.2-0.2 0.1-0.5 0.1-0.3 0.1-0.5 0.1-0.3 0-0.5 0-0.4 0.1-0.8 0.2-0.3 0.2-0.5 0.4-0.2 0.3-0.2 0.6 0 0.4 0.2 0.6 0.2 0.3 0.5 0.4 0.3 0.1 0.7 0.1zm9.8 1.4q-1.2 0-2.1-0.5-0.9-0.5-1.4-1.5-0.4-0.9-0.4-2.2 0-1.3 0.4-2.2 0.5-1 1.4-1.5 0.9-0.5 2.1-0.5 0.6 0 1.2 0.1 0.6 0.2 1.1 0.5 0.4 0.4 0.7 0.9 0.4 0.4 0.5 1l-1.8 0.4q-0.1-0.3-0.2-0.6-0.2-0.2-0.4-0.4-0.2-0.2-0.5-0.3-0.3-0.1-0.6-0.1-0.7 0-1.1 0.4-0.5 0.3-0.7 0.9-0.2 0.6-0.2 1.4 0 0.7 0.2 1.4 0.2 0.6 0.7 0.9 0.4 0.4 1.1 0.4 0.3 0 0.6-0.1 0.3-0.1 0.5-0.3 0.3-0.2 0.4-0.5 0.2-0.3 0.2-0.6l1.8 0.4q-0.1 0.6-0.4 1.1-0.3 0.5-0.8 0.8-0.5 0.4-1.1 0.5-0.5 0.2-1.2 0.2zm4.5-8.3h4.7v1.5h-4.7zm1.2 6v-8h1.9v7.8q0 0.5 0.2 0.7 0.2 0.2 0.6 0.2 0.2 0 0.4 0 0.2-0.1 0.3-0.1l0.3 1.5q-0.3 0.1-0.6 0.1-0.3 0.1-0.7 0.1-1.1 0-1.8-0.6-0.6-0.6-0.6-1.7zm6.6 2.1h-1.9v-8.1h1.9zm-0.9-9.4q-0.5 0-0.8-0.3-0.3-0.3-0.3-0.7 0-0.5 0.3-0.8 0.3-0.3 0.8-0.3 0.4 0 0.7 0.3 0.4 0.3 0.4 0.8 0 0.4-0.4 0.7-0.3 0.3-0.7 0.3zm6.6 9.5q-1.2 0-2.1-0.5-0.9-0.5-1.4-1.5-0.4-0.9-0.4-2.2 0-1.3 0.4-2.2 0.5-1 1.4-1.5 0.9-0.5 2.1-0.5 0.6 0 1.2 0.1 0.6 0.2 1.1 0.6 0.4 0.3 0.7 0.8 0.4 0.4 0.5 1l-1.8 0.4q-0.1-0.3-0.2-0.6-0.2-0.2-0.4-0.4-0.2-0.2-0.5-0.3-0.3-0.1-0.6-0.1-0.7 0-1.1 0.4-0.5 0.3-0.7 0.9-0.2 0.6-0.2 1.4 0 0.8 0.2 1.4 0.2 0.6 0.7 0.9 0.4 0.4 1.1 0.4 0.3 0 0.6-0.1 0.3-0.1 0.5-0.3 0.3-0.2 0.4-0.5 0.2-0.3 0.2-0.6l1.8 0.4q-0.1 0.6-0.4 1.1-0.3 0.5-0.8 0.8-0.5 0.4-1.1 0.5-0.5 0.2-1.2 0.2zm7.7 0q-0.8 0-1.4-0.3-0.6-0.2-1-0.8-0.3-0.5-0.3-1.3 0-0.7 0.2-1.2 0.3-0.4 0.7-0.7 0.5-0.3 1-0.4 0.6-0.2 1.2-0.2 0.7-0.1 1.1-0.2 0.5 0 0.7-0.2 0.2-0.1 0.2-0.4 0-0.4-0.2-0.7-0.1-0.3-0.4-0.4-0.4-0.2-0.8-0.2-0.5 0-0.9 0.2-0.3 0.1-0.5 0.4-0.2 0.2-0.3 0.5l-1.8-0.4q0.2-0.7 0.7-1.2 0.5-0.5 1.2-0.7 0.7-0.2 1.6-0.2 0.5 0 1.1 0.1 0.6 0.1 1.1 0.5 0.5 0.3 0.8 0.8 0.3 0.6 0.3 1.4v5.5h-1.8v-1.2h-0.1q-0.2 0.4-0.5 0.7-0.3 0.3-0.8 0.4-0.5 0.2-1.1 0.2zm0.5-1.4q0.6 0 1-0.2 0.4-0.3 0.7-0.6 0.2-0.4 0.2-0.9v-1q-0.1 0.1-0.3 0.2-0.2 0.1-0.5 0.1-0.3 0.1-0.5 0.1-0.3 0-0.5 0.1-0.4 0-0.8 0.1-0.3 0.2-0.5 0.4-0.2 0.3-0.2 0.6 0 0.4 0.2 0.6 0.2 0.3 0.5 0.4 0.3 0.1 0.7 0.1zm6.2-9.7h1.9v11h-1.9zm10.1 11q-0.9 0-1.7-0.2-0.7-0.3-1.2-0.8-0.4-0.5-0.6-1.3l1.8-0.3q0.2 0.6 0.6 0.9 0.5 0.3 1.1 0.3 0.7 0 1.2-0.3 0.4-0.3 0.4-0.7 0-0.4-0.3-0.6-0.3-0.2-0.8-0.3l-1.4-0.3q-1.2-0.3-1.8-0.9-0.5-0.5-0.5-1.4 0-0.8 0.4-1.4 0.4-0.5 1.1-0.8 0.8-0.3 1.8-0.3 0.9 0 1.6 0.2 0.6 0.3 1.1 0.8 0.4 0.4 0.5 1.1l-1.7 0.3q-0.1-0.4-0.5-0.7-0.3-0.3-1-0.3-0.6 0-1 0.3-0.4 0.2-0.4 0.6 0 0.4 0.2 0.6 0.3 0.3 0.9 0.4l1.4 0.3q1.2 0.3 1.8 0.8 0.5 0.5 0.5 1.4 0 0.8-0.4 1.4-0.5 0.6-1.3 0.9-0.8 0.3-1.8 0.3zm9.5 0q-1.2 0-2.1-0.5-0.9-0.5-1.4-1.5-0.4-0.9-0.4-2.2 0-1.3 0.4-2.2 0.5-1 1.4-1.5 0.9-0.5 2.1-0.5 1.2 0 2 0.5 0.9 0.5 1.4 1.5 0.5 0.9 0.5 2.2 0 1.3-0.5 2.2-0.5 1-1.4 1.5-0.8 0.5-2 0.5zm0-1.5q0.6 0 1.1-0.4 0.4-0.3 0.6-0.9 0.2-0.6 0.2-1.4 0-0.7-0.2-1.3-0.2-0.7-0.6-1-0.5-0.4-1.1-0.4-0.7 0-1.1 0.4-0.5 0.3-0.7 0.9-0.2 0.7-0.2 1.4 0 0.8 0.2 1.4 0.2 0.6 0.7 0.9 0.4 0.4 1.1 0.4zm5.4-9.5h1.9v10.9h-1.9zm6.8 11q-0.8 0-1.5-0.4-0.6-0.3-0.9-1-0.4-0.7-0.4-1.7v-5.2h1.9v4.9q0 0.8 0.4 1.3 0.5 0.5 1.2 0.5 0.5 0 0.9-0.3 0.4-0.2 0.6-0.6 0.3-0.4 0.3-1v-4.8h1.9v8.2h-1.8l-0.1-2h0.2q-0.4 1-1 1.6-0.7 0.5-1.7 0.5zm5.3-8.3h4.7v1.5h-4.7zm1.2 6v-8h1.9v7.9q0 0.4 0.2 0.6 0.2 0.2 0.6 0.2 0.2 0 0.4 0 0.2 0 0.3-0.1l0.3 1.5q-0.3 0.1-0.6 0.1-0.3 0.1-0.7 0.1-1.1 0-1.8-0.6-0.6-0.6-0.6-1.7zm6.6 2.2h-1.9v-8.2h1.9zm-0.9-9.4q-0.5 0-0.8-0.3-0.3-0.3-0.3-0.7 0-0.4 0.3-0.7 0.3-0.3 0.8-0.3 0.4 0 0.7 0.3 0.4 0.3 0.4 0.7 0 0.4-0.4 0.7-0.3 0.3-0.7 0.3zm6.6 9.5q-1.2 0-2.1-0.5-0.9-0.5-1.4-1.5-0.4-0.9-0.4-2.2 0-1.2 0.4-2.2 0.5-0.9 1.4-1.5 0.9-0.5 2.1-0.5 1.2 0 2 0.5 0.9 0.6 1.4 1.5 0.5 1 0.5 2.2 0 1.3-0.5 2.2-0.5 1-1.4 1.5-0.8 0.5-2 0.5zm0-1.5q0.6 0 1.1-0.4 0.4-0.3 0.6-0.9 0.2-0.6 0.2-1.4 0-0.7-0.2-1.3-0.2-0.6-0.6-1-0.5-0.4-1.1-0.4-0.7 0-1.1 0.4-0.5 0.4-0.7 1-0.2 0.6-0.2 1.3 0 0.8 0.2 1.4 0.2 0.6 0.7 0.9 0.4 0.4 1.1 0.4zm7.3-3.4v4.8h-1.9v-8.2h1.8v2h-0.1q0.3-1 1-1.6 0.7-0.5 1.7-0.5 0.8 0 1.4 0.4 0.7 0.3 1 1 0.4 0.7 0.4 1.7v5.2h-1.9v-4.9q0-0.9-0.5-1.3-0.4-0.5-1.1-0.5-0.5 0-0.9 0.2-0.4 0.3-0.7 0.7-0.2 0.4-0.2 1z"/>
			</g>
			<g id="Card1">
				<path id="Shape 1" fill-rule="evenodd" class="s2" d="m65.74 26.25l180.12-0.22c4.11 0 7.45 3.63 7.46 8.1l0.02 30.4c0.01 4.48-3.33 8.12-7.44 8.12l-180.12 0.22c-4.12 0-7.46-3.62-7.46-8.1l-0.02-30.4c-0.01-4.48 3.33-8.11 7.44-8.12z"/>
				<path id="Find a real problem" class="s3" d="m90.1 55h-2v-10.9h7v1.6h-5v3.3h4.5v1.6h-4.5zm8.8 0h-1.9v-8.2h1.9zm-0.9-9.3q-0.5 0-0.8-0.3-0.3-0.3-0.3-0.7 0-0.5 0.3-0.8 0.3-0.3 0.8-0.3 0.4 0 0.7 0.3 0.4 0.3 0.4 0.8 0 0.4-0.4 0.7-0.3 0.3-0.7 0.3zm4.9 4.6v4.7h-1.9v-8.1h1.8v2h-0.1q0.3-1.1 1-1.6 0.7-0.5 1.7-0.5 0.8 0 1.4 0.3 0.7 0.4 1 1.1 0.4 0.7 0.4 1.6v5.2h-1.9v-4.9q0-0.8-0.5-1.3-0.4-0.4-1.1-0.4-0.5 0-0.9 0.2-0.4 0.2-0.7 0.6-0.2 0.5-0.2 1.1zm10.1 4.9q-0.9 0-1.7-0.5-0.8-0.5-1.2-1.4-0.4-1-0.4-2.3 0-1.4 0.4-2.3 0.5-1 1.2-1.5 0.8-0.4 1.7-0.4 0.8 0 1.2 0.2 0.5 0.2 0.8 0.6 0.2 0.3 0.4 0.6h0.1v-4.1h1.9v10.9h-1.9v-1.2h-0.1q-0.2 0.2-0.5 0.6-0.2 0.3-0.7 0.6-0.5 0.2-1.2 0.2zm0.5-1.6q0.7 0 1.1-0.3 0.4-0.3 0.7-0.9 0.2-0.6 0.2-1.4 0-0.8-0.2-1.4-0.3-0.6-0.7-0.9-0.4-0.4-1.1-0.4-0.6 0-1 0.4-0.5 0.3-0.7 0.9-0.2 0.6-0.2 1.4 0 0.7 0.2 1.3 0.2 0.6 0.7 1 0.4 0.3 1 0.3zm11.8 1.6q-0.8 0-1.4-0.3-0.6-0.2-1-0.8-0.3-0.5-0.3-1.4 0-0.6 0.2-1.1 0.3-0.5 0.7-0.7 0.5-0.3 1-0.4 0.6-0.2 1.2-0.2 0.7-0.1 1.1-0.2 0.5 0 0.7-0.2 0.2-0.1 0.2-0.4 0-0.4-0.2-0.7-0.1-0.3-0.4-0.4-0.4-0.2-0.8-0.2-0.5 0-0.9 0.2-0.3 0.1-0.5 0.4-0.2 0.2-0.3 0.5l-1.8-0.4q0.2-0.7 0.7-1.2 0.5-0.5 1.2-0.7 0.7-0.2 1.6-0.2 0.5 0 1.1 0.1 0.6 0.1 1.1 0.5 0.5 0.3 0.8 0.8 0.3 0.6 0.3 1.4v5.4h-1.8v-1.1h-0.1q-0.2 0.4-0.5 0.7-0.3 0.3-0.8 0.4-0.5 0.2-1.1 0.2zm0.5-1.4q0.6 0 1-0.2 0.4-0.3 0.7-0.6 0.2-0.4 0.2-0.9v-1q-0.1 0.1-0.3 0.2-0.2 0-0.5 0.1-0.3 0-0.5 0.1-0.3 0-0.5 0-0.4 0.1-0.8 0.2-0.3 0.2-0.5 0.4-0.2 0.2-0.2 0.6 0 0.4 0.2 0.6 0.2 0.3 0.5 0.4 0.3 0.1 0.7 0.1zm12.1 1.2h-1.9v-8.1h1.9v1.3q0.3-0.7 0.8-1.1 0.6-0.4 1.3-0.4 0.1 0 0.3 0.1 0.2 0 0.4 0v1.8q-0.2-0.1-0.4-0.1-0.3 0-0.5 0-0.6 0-1 0.2-0.4 0.2-0.7 0.6-0.2 0.4-0.2 0.9zm6.7 0.2q-1.2 0-2.1-0.5-0.9-0.5-1.4-1.5-0.4-0.9-0.4-2.2 0-1.3 0.4-2.2 0.5-1 1.4-1.5 0.8-0.6 2-0.6 0.8 0 1.4 0.3 0.7 0.2 1.2 0.7 0.6 0.5 0.8 1.3 0.3 0.8 0.3 1.9v0.6h-6.7v-1.3h5.8l-0.9 0.4q0-0.7-0.2-1.3-0.2-0.5-0.6-0.8-0.5-0.3-1.1-0.3-0.6 0-1.1 0.3-0.4 0.3-0.6 0.8-0.3 0.5-0.3 1.1v0.9q0 0.8 0.3 1.3 0.3 0.6 0.7 0.8 0.5 0.3 1.2 0.3 0.4 0 0.7-0.1 0.4-0.1 0.6-0.4 0.2-0.2 0.4-0.6l1.7 0.4q-0.2 0.7-0.7 1.2-0.4 0.4-1.1 0.7-0.8 0.3-1.7 0.3zm7.7 0q-0.8 0-1.4-0.3-0.6-0.3-1-0.8-0.3-0.6-0.3-1.4 0-0.7 0.2-1.1 0.3-0.5 0.7-0.7 0.5-0.3 1-0.4 0.6-0.2 1.2-0.3 0.7 0 1.1-0.1 0.5 0 0.7-0.2 0.2-0.1 0.2-0.4 0-0.4-0.2-0.7-0.1-0.3-0.4-0.4-0.4-0.2-0.8-0.2-0.5 0-0.9 0.2-0.3 0.1-0.5 0.3-0.2 0.3-0.3 0.5l-1.8-0.3q0.2-0.7 0.7-1.2 0.5-0.5 1.2-0.7 0.7-0.3 1.6-0.3 0.5 0 1.1 0.2 0.6 0.1 1.1 0.4 0.5 0.4 0.8 0.9 0.3 0.5 0.3 1.4v5.4h-1.8v-1.1h-0.1q-0.2 0.4-0.5 0.6-0.3 0.3-0.8 0.5-0.5 0.2-1.1 0.2zm0.5-1.4q0.6 0 1-0.2 0.4-0.3 0.7-0.7 0.2-0.4 0.2-0.8v-1q-0.1 0.1-0.3 0.2-0.2 0-0.5 0.1-0.3 0-0.5 0.1-0.3 0-0.5 0-0.4 0.1-0.8 0.2-0.3 0.2-0.5 0.4-0.2 0.2-0.2 0.6 0 0.4 0.2 0.6 0.2 0.2 0.5 0.4 0.3 0.1 0.7 0.1zm6.2-9.7h1.9v10.9h-1.9zm9.9 14h-1.9v-11.2h1.9v1.3h0.1q0.1-0.3 0.4-0.6 0.3-0.4 0.7-0.6 0.5-0.2 1.2-0.2 1 0 1.7 0.4 0.8 0.5 1.3 1.5 0.4 0.9 0.4 2.3 0 1.3-0.4 2.3-0.5 0.9-1.2 1.4-0.8 0.5-1.8 0.5-0.7 0-1.1-0.2-0.5-0.3-0.8-0.6-0.3-0.4-0.4-0.7h-0.1zm1.9-4.4q0.7 0 1.1-0.4 0.4-0.3 0.6-0.9 0.3-0.6 0.3-1.4 0-0.8-0.3-1.4-0.2-0.6-0.6-0.9-0.4-0.3-1.1-0.3-0.6 0-1 0.3-0.5 0.3-0.7 0.9-0.2 0.6-0.2 1.4 0 0.8 0.2 1.4 0.2 0.6 0.7 0.9 0.4 0.4 1 0.4zm7.1 1.4h-1.9v-8.2h1.9v1.4q0.3-0.7 0.8-1.1 0.6-0.4 1.3-0.4 0.1 0 0.3 0 0.2 0 0.4 0v1.8q-0.2 0-0.4-0.1-0.3 0-0.5 0-0.6 0-1 0.2-0.4 0.2-0.7 0.7-0.2 0.3-0.2 0.9zm7.7 0.1q-1.2 0-2.1-0.5-0.9-0.5-1.4-1.5-0.4-0.9-0.4-2.2 0-1.3 0.4-2.2 0.5-1 1.4-1.5 0.9-0.5 2.1-0.5 1.2 0 2 0.5 0.9 0.5 1.4 1.5 0.5 0.9 0.5 2.2 0 1.3-0.5 2.2-0.5 1-1.4 1.5-0.8 0.5-2 0.5zm0-1.5q0.6 0 1.1-0.4 0.4-0.3 0.6-0.9 0.2-0.6 0.2-1.4 0-0.7-0.2-1.3-0.2-0.7-0.6-1-0.5-0.4-1.1-0.4-0.7 0-1.1 0.4-0.5 0.3-0.7 1-0.2 0.6-0.2 1.3 0 0.8 0.2 1.4 0.2 0.6 0.7 0.9 0.4 0.4 1.1 0.4zm9.7 1.5q-0.7 0-1.1-0.2-0.5-0.3-0.8-0.6-0.3-0.3-0.4-0.6h-0.1v1.3h-1.9v-10.9h1.9v4h0.1q0.1-0.3 0.4-0.6 0.3-0.3 0.7-0.6 0.5-0.2 1.2-0.2 1 0 1.7 0.5 0.8 0.4 1.3 1.4 0.4 0.9 0.4 2.3 0 1.3-0.4 2.3-0.5 0.9-1.2 1.4-0.8 0.5-1.8 0.5zm-0.5-1.5q0.7 0 1.1-0.4 0.4-0.3 0.6-0.9 0.3-0.7 0.3-1.4 0-0.8-0.3-1.4-0.2-0.6-0.6-0.9-0.4-0.4-1.1-0.4-0.6 0-1 0.4-0.5 0.3-0.7 0.9-0.2 0.6-0.2 1.4 0 0.8 0.2 1.4 0.2 0.6 0.7 0.9 0.4 0.4 1 0.4zm5.2-9.5h1.9v10.9h-1.9zm7.6 11.1q-1.2 0-2.1-0.6-0.9-0.5-1.4-1.4-0.4-1-0.4-2.3 0-1.2 0.4-2.2 0.5-0.9 1.4-1.5 0.8-0.5 2-0.5 0.8 0 1.4 0.2 0.7 0.3 1.2 0.8 0.6 0.5 0.8 1.3 0.3 0.7 0.3 1.8v0.6h-6.7v-1.3h5.8l-0.9 0.4q0-0.7-0.2-1.2-0.2-0.5-0.6-0.8-0.5-0.3-1.1-0.3-0.6 0-1.1 0.3-0.4 0.3-0.6 0.8-0.3 0.5-0.3 1.1v0.9q0 0.7 0.3 1.3 0.3 0.5 0.7 0.8 0.5 0.3 1.2 0.3 0.4 0 0.7-0.2 0.4-0.1 0.6-0.3 0.2-0.3 0.4-0.6l1.7 0.4q-0.2 0.6-0.7 1.1-0.4 0.5-1.1 0.8-0.8 0.3-1.7 0.3zm7.3-0.2h-1.9v-8.2h1.8l0.1 2h-0.2q0.2-0.8 0.6-1.2 0.3-0.5 0.8-0.7 0.5-0.2 1.1-0.2 0.9 0 1.4 0.5 0.6 0.6 0.8 1.7h-0.2q0.1-0.8 0.5-1.3 0.4-0.4 1-0.7 0.6-0.2 1.2-0.2 0.7 0 1.3 0.3 0.6 0.3 1 0.9 0.3 0.6 0.3 1.6v5.5h-1.9v-5.2q0-0.8-0.4-1.2-0.4-0.3-1-0.3-0.5 0-0.8 0.2-0.4 0.2-0.5 0.5-0.2 0.4-0.2 0.8v5.2h-1.9v-5.3q0-0.7-0.4-1-0.4-0.4-1-0.4-0.4 0-0.7 0.2-0.4 0.2-0.6 0.6-0.2 0.3-0.2 0.9z"/>
			</g>
			<path id="dot1" fill-rule="evenodd" class="s1" d="m299 54c-2.21 0-4-1.79-4-4 0-2.21 1.79-4 4-4 2.21 0 4 1.79 4 4 0 2.21-1.79 4-4 4z"/>
			<path id="dot2" fill-rule="evenodd" class="s1" d="m598 54c-2.21 0-4-1.79-4-4 0-2.21 1.79-4 4-4 2.21 0 4 1.79 4 4 0 2.21-1.79 4-4 4z"/>
		</g>
	</g>
</svg>